<svg width="80" height="80" viewBox="0 0 80 80" fill="none" xmlns="http://www.w3.org/2000/svg">
<rect width="80" height="80" rx="7" fill="#EEE9FE"/>
<path d="M30.5244 43.1141H25.1805C23.412 43.1154 21.6606 42.7681 20.0265 42.0919C18.3923 41.4158 16.9075 40.4241 15.657 39.1736C14.4065 37.9231 13.4148 36.4383 12.7387 34.8042C12.0625 33.1701 11.7152 31.4187 11.7166 29.6502V20.1165C11.7166 19.9354 11.7885 19.7617 11.9166 19.6336C12.0447 19.5055 12.2184 19.4336 12.3995 19.4336H27.137C27.3182 19.4336 27.4919 19.5055 27.6199 19.6336C27.748 19.7617 27.82 19.9354 27.82 20.1165C27.82 20.2976 27.748 20.4713 27.6199 20.5994C27.4919 20.7275 27.3182 20.7994 27.137 20.7994H13.0824V29.6502C13.0815 31.2392 13.3938 32.8128 14.0015 34.281C14.6092 35.7492 15.5003 37.0832 16.6238 38.2068C17.7474 39.3304 19.0815 40.2215 20.5497 40.8291C22.0179 41.4368 23.5915 41.7491 25.1805 41.7482H30.5244C30.7055 41.7482 30.8792 41.8202 31.0073 41.9482C31.1353 42.0763 31.2073 42.25 31.2073 42.4312C31.2073 42.6123 31.1353 42.786 31.0073 42.9141C30.8792 43.0421 30.7055 43.1141 30.5244 43.1141Z" fill="#F08000"/>
<path d="M54.8195 43.1141H49.3799C49.1988 43.1141 49.0251 43.0421 48.897 42.9141C48.769 42.786 48.697 42.6123 48.697 42.4312C48.697 42.25 48.769 42.0763 48.897 41.9482C49.0251 41.8202 49.1988 41.7482 49.3799 41.7482H54.8195C56.4085 41.7491 57.982 41.4368 59.4502 40.8291C60.9185 40.2215 62.2525 39.3304 63.3761 38.2068C64.4997 37.0832 65.3908 35.7492 65.9984 34.281C66.6061 32.8128 66.9184 31.2392 66.9175 29.6502V20.7994H55.9156C55.7344 20.7994 55.5607 20.7275 55.4327 20.5994C55.3046 20.4713 55.2326 20.2976 55.2326 20.1165C55.2326 19.9354 55.3046 19.7617 55.4327 19.6336C55.5607 19.5055 55.7344 19.4336 55.9156 19.4336H67.6004C67.7816 19.4336 67.9553 19.5055 68.0833 19.6336C68.2114 19.7617 68.2834 19.9354 68.2834 20.1165V29.6502C68.2847 31.4187 67.9374 33.1701 67.2612 34.8042C66.5851 36.4383 65.5934 37.9231 64.3429 39.1736C63.0924 40.4241 61.6076 41.4158 59.9735 42.0919C58.3393 42.7681 56.5879 43.1154 54.8195 43.1141Z" fill="#F08000"/>
<path d="M42.8034 44.5H37.1965V57.2035H42.8034V44.5Z" fill="#F4C23F"/>
<path d="M31.3678 26.472C31.9073 25.731 31.2244 24.3378 31.5147 23.4466C31.8049 22.5554 33.1742 21.8656 33.1742 20.9164C33.1742 19.9671 31.7912 19.2398 31.5147 18.3827C31.2381 17.5256 31.9073 16.0983 31.3678 15.3573C30.8283 14.6164 29.2849 14.8315 28.5337 14.2852C27.7825 13.7388 27.5332 12.2125 26.642 11.9222C25.7507 11.632 24.6717 12.7212 23.719 12.7212C22.7664 12.7212 21.6566 11.6422 20.7995 11.9222C19.9425 12.2022 19.6454 13.7456 18.9044 14.2852C18.1634 14.8247 16.6166 14.6095 16.0703 15.3573C15.5239 16.1052 16.2137 17.4915 15.9268 18.3827C15.64 19.2739 14.2673 19.9637 14.2673 20.9164C14.2673 21.8691 15.6468 22.5895 15.9268 23.4466C16.2068 24.3037 15.5342 25.731 16.0703 26.472C16.3093 26.7998 16.7429 26.9432 17.2142 27.0456L15.9542 29.8491C15.9143 29.9358 15.8995 30.0319 15.9114 30.1265C15.9233 30.2212 15.9613 30.3107 16.0213 30.3849C16.0813 30.4591 16.1609 30.515 16.2509 30.5465C16.341 30.5779 16.4381 30.5835 16.5312 30.5627L18.3171 30.1803C18.4238 30.1575 18.5351 30.1693 18.6346 30.2142C18.7341 30.259 18.8166 30.3345 18.8703 30.4295L19.7717 32.0208C19.8183 32.1037 19.8871 32.172 19.9704 32.218C20.0536 32.264 20.148 32.2859 20.243 32.2813C20.338 32.2767 20.4298 32.2457 20.5082 32.1919C20.5866 32.138 20.6485 32.0634 20.6868 31.9764L21.6429 29.8525C22.319 29.6271 23.06 29.1081 23.719 29.1081C24.3781 29.1081 25.119 29.6271 25.7951 29.8525L26.7512 31.9764C26.7902 32.0633 26.8524 32.1377 26.9311 32.1914C27.0098 32.2451 27.1018 32.2759 27.1969 32.2805C27.292 32.2851 27.3865 32.2633 27.47 32.2174C27.5535 32.1716 27.6226 32.1035 27.6698 32.0208L28.5678 30.4295C28.6216 30.3338 28.7048 30.2579 28.805 30.213C28.9052 30.1682 29.0172 30.1567 29.1244 30.1803L30.9103 30.5627C31.0031 30.5822 31.0996 30.5756 31.189 30.5438C31.2784 30.5119 31.3573 30.456 31.4169 30.3823C31.4766 30.3085 31.5147 30.2196 31.5272 30.1256C31.5396 30.0315 31.5258 29.9358 31.4873 29.8491L30.2239 27.0456C30.6986 26.9432 31.1288 26.7998 31.3678 26.472Z" fill="#F4C23F"/>
<path d="M37.1965 46.8732C39.0538 47.1691 40.9461 47.1691 42.8034 46.8732V44.5H37.1965V46.8732Z" fill="#F4A93F"/>
<path d="M24.0845 16.3438H52.7674C53.6033 16.3438 54.4049 16.6758 54.996 17.2669C55.5871 17.8579 55.9191 18.6596 55.9191 19.4955V29.6437C55.9191 31.7341 55.5073 33.804 54.7073 35.7352C53.9072 37.6664 52.7346 39.421 51.2563 40.899C49.7781 42.3769 48.0231 43.5492 46.0918 44.3488C44.1604 45.1485 42.0904 45.5598 40.0001 45.5594C35.779 45.5594 31.7308 43.8825 28.746 40.8978C25.7613 37.913 24.0845 33.8648 24.0845 29.6437V16.3438Z" fill="#F4C23F"/>
<path d="M44.7293 43.0837C35.9401 43.0837 28.8137 35.9574 28.8137 27.1681V16.3438H24.0845V29.6437C24.0845 38.433 31.2108 45.5594 40.0001 45.5594C43.4806 45.5651 46.8661 44.4238 49.6328 42.312C48.049 42.8255 46.3942 43.0859 44.7293 43.0837Z" fill="#F4A93F"/>
<path d="M33.1162 16.3438H24.0845V29.6437C24.0845 30.033 24.0981 30.4189 24.1254 30.7979L24.402 30.9277L24.6445 31.0403L25.3513 32.6077C25.5065 32.9535 25.7547 33.2494 26.0681 33.4626C26.3816 33.6758 26.748 33.7979 27.1267 33.8152C27.5053 33.8326 27.8814 33.7445 28.213 33.5609C28.5446 33.3772 28.8188 33.1052 29.005 32.775L29.5342 31.8394L30.5859 32.0647C30.7285 32.0947 30.8739 32.1096 31.0196 32.1091C31.3621 32.1092 31.6991 32.0235 31.9998 31.8598C32.3006 31.696 32.5556 31.4595 32.7413 31.1718C32.9271 30.8841 33.0378 30.5545 33.0634 30.213C33.0889 29.8715 33.0284 29.529 32.8874 29.2169L32.242 27.7828C32.3778 27.6596 32.5014 27.5235 32.6108 27.3764C33.2698 26.4716 33.1333 25.4096 33.0342 24.6345C33.0069 24.4091 32.9659 24.0745 32.9762 23.9311C33.0513 23.8116 33.2664 23.5862 33.4133 23.4291C33.9596 22.8555 34.7108 22.0633 34.7108 20.9159C34.7108 19.7686 33.9596 18.973 33.4133 18.3994C33.2664 18.2423 33.0513 18.0169 32.9762 17.9008C32.9659 17.754 33.0069 17.4228 33.0342 17.194C33.0615 16.9652 33.1059 16.6477 33.1162 16.3438Z" fill="#F4A93F"/>
<path d="M49.3801 60.0817H30.6201L32.283 57.6812C32.3849 57.5336 32.5211 57.4129 32.6799 57.3296C32.8387 57.2464 33.0154 57.203 33.1948 57.2031H46.8055C46.9848 57.203 47.1615 57.2464 47.3203 57.3296C47.4792 57.4129 47.6153 57.5336 47.7172 57.6812L49.3801 60.0817Z" fill="#4D4C78"/>
<path d="M32.3309 59.4704L33.9016 57.2031H33.1948C33.0154 57.203 32.8387 57.2464 32.6799 57.3296C32.5211 57.4129 32.3849 57.5336 32.283 57.6812L30.6201 60.0817H49.3801L48.9567 59.4704H32.3309Z" fill="#323150"/>
<path d="M52.8766 60.082H27.1234C26.0786 60.082 25.2317 60.929 25.2317 61.9737V66.2321C25.2317 67.2769 26.0786 68.1238 27.1234 68.1238H52.8766C53.9213 68.1238 54.7683 67.2769 54.7683 66.2321V61.9737C54.7683 60.929 53.9213 60.082 52.8766 60.082Z" fill="#4D4C78"/>
<path d="M53.6688 66.9253H27.919C27.417 66.9253 26.9355 66.7261 26.5802 66.3714C26.2249 66.0168 26.0248 65.5356 26.0239 65.0336V60.7755C26.0244 60.6528 26.037 60.5304 26.0614 60.4102C25.8054 60.5835 25.5958 60.8171 25.4511 61.0903C25.3065 61.3636 25.2311 61.6683 25.2317 61.9775V66.2321C25.2317 66.7341 25.4309 67.2156 25.7856 67.571C26.1402 67.9263 26.6214 68.1263 27.1234 68.1272H52.8766C53.315 68.1266 53.7396 67.9737 54.0778 67.6947C54.416 67.4157 54.6468 67.0278 54.7307 66.5975C54.4184 66.8124 54.0479 66.9267 53.6688 66.9253Z" fill="#323150"/>
<path d="M50.763 62.6895H28.8616C28.309 62.6895 27.8611 63.1374 27.8611 63.6899V64.5467C27.8611 65.0992 28.309 65.5472 28.8616 65.5472H50.763C51.3156 65.5472 51.7635 65.0992 51.7635 64.5467V63.6899C51.7635 63.1374 51.3156 62.6895 50.763 62.6895Z" fill="#323150"/>
<path d="M40.1093 37.1488C39.9285 37.1479 39.7553 37.0757 39.6274 36.9478C39.4995 36.8199 39.4273 36.6467 39.4264 36.4659V23.4561L37.0805 25.2454C36.9353 25.3407 36.7594 25.3774 36.5881 25.3481C36.4169 25.3188 36.2632 25.2257 36.1579 25.0875C36.0527 24.9493 36.0037 24.7764 36.021 24.6035C36.0382 24.4307 36.1203 24.2708 36.2508 24.1561L39.6961 21.5337C39.7974 21.4568 39.918 21.4097 40.0446 21.3976C40.1711 21.3856 40.2985 21.4091 40.4124 21.4655C40.5263 21.5219 40.6223 21.609 40.6894 21.717C40.7564 21.8249 40.7921 21.9495 40.7922 22.0766V36.4659C40.7922 36.647 40.7203 36.8207 40.5922 36.9488C40.4641 37.0769 40.2904 37.1488 40.1093 37.1488Z" fill="#F4A93F"/>
<path d="M44.0463 37.8112H36.0936C35.9124 37.8112 35.7387 37.7392 35.6107 37.6111C35.4826 37.4831 35.4106 37.3094 35.4106 37.1282C35.4106 36.9471 35.4826 36.7734 35.6107 36.6453C35.7387 36.5173 35.9124 36.4453 36.0936 36.4453H44.0463C44.2274 36.4453 44.4011 36.5173 44.5292 36.6453C44.6572 36.7734 44.7292 36.9471 44.7292 37.1282C44.7292 37.3094 44.6572 37.4831 44.5292 37.6111C44.4011 37.7392 44.2274 37.8112 44.0463 37.8112Z" fill="#F4A93F"/>
<path d="M40.4506 37.1488C40.2698 37.1479 40.0966 37.0757 39.9687 36.9478C39.8408 36.8199 39.7686 36.6467 39.7677 36.4659V23.4561L37.4218 25.2454C37.2766 25.3407 37.1007 25.3774 36.9295 25.3481C36.7582 25.3188 36.6045 25.2257 36.4993 25.0875C36.394 24.9493 36.345 24.7764 36.3623 24.6035C36.3795 24.4307 36.4616 24.2708 36.5921 24.1561L40.0374 21.5337C40.1387 21.4568 40.2593 21.4097 40.3859 21.3976C40.5124 21.3856 40.6398 21.4091 40.7537 21.4655C40.8677 21.5219 40.9636 21.609 41.0307 21.717C41.0978 21.8249 41.1334 21.9495 41.1335 22.0766V36.4659C41.1335 36.647 41.0616 36.8207 40.9335 36.9488C40.8054 37.0769 40.6317 37.1488 40.4506 37.1488Z" fill="#F08000"/>
<path d="M44.3878 37.8112H36.4351C36.254 37.8112 36.0803 37.7392 35.9522 37.6111C35.8241 37.4831 35.7522 37.3094 35.7522 37.1282C35.7522 36.9471 35.8241 36.7734 35.9522 36.6453C36.0803 36.5173 36.254 36.4453 36.4351 36.4453H44.3878C44.5689 36.4453 44.7426 36.5173 44.8707 36.6453C44.9988 36.7734 45.0707 36.9471 45.0707 37.1282C45.0707 37.3094 44.9988 37.4831 44.8707 37.6111C44.7426 37.7392 44.5689 37.8112 44.3878 37.8112Z" fill="#F08000"/>
<path d="M33.1742 20.9164C33.1742 21.8656 31.7912 22.5895 31.5147 23.4466C31.2381 24.3037 31.9073 25.731 31.3678 26.472C30.8283 27.213 29.2849 26.9978 28.5337 27.5442C27.7825 28.0905 27.5332 29.6169 26.642 29.9071C25.7507 30.1973 24.6717 29.1081 23.719 29.1081C22.7664 29.1081 21.6566 30.1871 20.7995 29.9071C19.9425 29.6271 19.6454 28.0837 18.9044 27.5442C18.1634 27.0047 16.6166 27.2198 16.0703 26.472C15.5239 25.7242 16.2137 24.3378 15.9268 23.4466C15.64 22.5554 14.2673 21.8656 14.2673 20.9164C14.2673 19.9671 15.6468 19.2398 15.9268 18.3827C16.2068 17.5256 15.5342 16.0983 16.0703 15.3573C16.6064 14.6164 18.1566 14.8315 18.9044 14.2852C19.6522 13.7388 19.9083 12.2125 20.7995 11.9222C21.6907 11.632 22.7664 12.7212 23.719 12.7212C24.6717 12.7212 25.7815 11.6422 26.642 11.9222C27.5025 12.2022 27.7927 13.7456 28.5337 14.2852C29.2747 14.8247 30.8215 14.6095 31.3678 15.3573C31.9142 16.1052 31.2244 17.4915 31.5147 18.3827C31.8049 19.2739 33.1742 19.9637 33.1742 20.9164Z" fill="#F4C23F"/>
<path d="M23.5004 27.6865C21.8605 27.685 20.2879 27.0343 19.1263 25.8767C18.563 25.3118 18.1133 24.6441 17.8014 23.9099C17.3216 22.7767 17.1913 21.526 17.4274 20.3183C17.6635 19.1105 18.2551 18.0009 19.1263 17.1318C20.1405 16.1175 21.4757 15.4873 22.9034 15.3491C24.3311 15.2109 25.7624 15.5733 26.9523 16.3742C28.1422 17.1751 29.0167 18.3648 29.426 19.7395C29.8353 21.1142 29.754 22.5885 29.1961 23.9099C28.7229 25.0294 27.9303 25.9847 26.9173 26.6564C25.9043 27.3281 24.7159 27.6864 23.5004 27.6865Z" fill="#F4A93F"/>
<path d="M27.4204 22.8482C27.3924 22.7866 27.3525 22.731 27.303 22.6848C27.2535 22.6385 27.1954 22.6025 27.132 22.5787C27.0686 22.5549 27.0011 22.5439 26.9334 22.5462C26.8657 22.5485 26.7991 22.5641 26.7375 22.5921L22.9438 24.2995C22.8904 24.322 22.8417 24.3544 22.8004 24.3951C22.7591 24.3544 22.7104 24.322 22.657 24.2995L18.8599 22.5921C18.7986 22.5637 18.7322 22.5478 18.6646 22.5453C18.5971 22.5428 18.5297 22.5538 18.4664 22.5776C18.4032 22.6015 18.3453 22.6377 18.2962 22.6841C18.2471 22.7306 18.2077 22.7864 18.1804 22.8482L16.4185 26.7717C17.1048 27.1678 18.2794 27.0892 18.9043 27.5434C19.6214 28.0658 19.8911 29.5204 20.7141 29.8756L22.8004 25.2351L24.6511 29.3497C25.3443 29.6502 26.0511 30.0975 26.6419 29.9063C27.5331 29.616 27.7926 28.0829 28.5336 27.5434C28.7624 27.3795 29.0594 27.2839 29.3804 27.2121L27.4204 22.8482Z" fill="#F4A93F"/>
<path d="M19.7718 32.0209L18.8703 30.4297C18.8167 30.3347 18.7341 30.2592 18.6346 30.2144C18.5351 30.1695 18.4239 30.1577 18.3171 30.1805L16.5313 30.5629C16.4382 30.5837 16.3411 30.5781 16.251 30.5466C16.1609 30.5152 16.0814 30.4593 16.0214 30.3851C15.9614 30.3109 15.9233 30.2214 15.9114 30.1267C15.8996 30.0321 15.9144 29.9359 15.9542 29.8492L19.0991 22.8492C19.1271 22.7876 19.167 22.732 19.2165 22.6858C19.266 22.6395 19.3241 22.6035 19.3875 22.5797C19.4509 22.5559 19.5184 22.5449 19.5861 22.5472C19.6538 22.5495 19.7204 22.5651 19.782 22.5931L23.5757 24.3005C23.7 24.3564 23.797 24.4593 23.8457 24.5867C23.8943 24.714 23.8905 24.8554 23.8352 24.98L20.6869 31.9766C20.6485 32.0636 20.5867 32.1382 20.5083 32.1921C20.4299 32.2459 20.3381 32.2769 20.2431 32.2815C20.1481 32.2861 20.0536 32.2642 19.9704 32.2182C19.8872 32.1721 19.8184 32.1039 19.7718 32.0209Z" fill="#DE3226"/>
<path d="M20.1986 24.1323C20.2572 24.0056 20.2903 23.8686 20.2959 23.7292C20.3015 23.5897 20.2796 23.4505 20.2314 23.3196C20.1832 23.1886 20.1097 23.0684 20.015 22.9659C19.9203 22.8633 19.8063 22.7805 19.6796 22.722L19.3791 22.582C19.255 22.6315 19.1547 22.7269 19.0991 22.8484L15.9542 29.8484C15.9144 29.9351 15.8996 30.0312 15.9114 30.1259C15.9233 30.2205 15.9614 30.31 16.0214 30.3842C16.0814 30.4584 16.1609 30.5144 16.251 30.5458C16.3411 30.5772 16.4382 30.5828 16.5313 30.562L17.303 30.3947L20.1986 24.1323Z" fill="#B11A31"/>
<path d="M27.6698 32.0199L28.5679 30.4287C28.6217 30.333 28.7048 30.2571 28.805 30.2122C28.9053 30.1673 29.0172 30.1559 29.1245 30.1795L30.9103 30.5619C31.0032 30.5814 31.0997 30.5748 31.189 30.543C31.2784 30.5111 31.3573 30.4552 31.417 30.3814C31.4767 30.3077 31.5148 30.2188 31.5272 30.1248C31.5396 30.0307 31.5259 29.935 31.4874 29.8482L28.3391 22.8482C28.3118 22.7864 28.2725 22.7306 28.2233 22.6841C28.1742 22.6377 28.1164 22.6015 28.0531 22.5776C27.9898 22.5538 27.9224 22.5428 27.8549 22.5453C27.7873 22.5478 27.7209 22.5637 27.6596 22.5921L23.8625 24.2995C23.7382 24.3554 23.6412 24.4583 23.5925 24.5857C23.5439 24.713 23.5477 24.8544 23.603 24.979L26.7513 31.9756C26.7902 32.0625 26.8525 32.1369 26.9312 32.1906C27.0098 32.2443 27.1018 32.2751 27.1969 32.2797C27.2921 32.2843 27.3866 32.2625 27.4701 32.2166C27.5536 32.1708 27.6227 32.1027 27.6698 32.0199Z" fill="#DE3226"/>
<path d="M24.8492 24.668L23.6951 25.1836L26.7512 31.9753C26.7901 32.0622 26.8524 32.1366 26.931 32.1903C27.0097 32.244 27.1017 32.2749 27.1968 32.2795C27.2919 32.284 27.3865 32.2622 27.4699 32.2164C27.5534 32.1705 27.6226 32.1024 27.6697 32.0197L27.9224 31.5689L24.8492 24.668Z" fill="#B11A31"/>
<path d="M23.5756 24.3005L19.7819 22.5931C19.7203 22.5651 19.6537 22.5495 19.586 22.5472C19.5183 22.5449 19.4508 22.5559 19.3874 22.5797C19.324 22.6035 19.2659 22.6395 19.2164 22.6858C19.1669 22.732 19.127 22.7876 19.099 22.8492L18.2419 24.7614C18.4936 25.1659 18.7903 25.5405 19.1263 25.878C20.079 26.8261 21.3128 27.4406 22.6434 27.6297L23.8351 24.98C23.8905 24.8554 23.8942 24.714 23.8456 24.5867C23.797 24.4593 23.6999 24.3564 23.5756 24.3005Z" fill="#B11A31"/>
<path d="M29.0015 24.3268L28.3391 22.8482C28.3118 22.7864 28.2725 22.7306 28.2233 22.6841C28.1742 22.6377 28.1164 22.6015 28.0531 22.5776C27.9898 22.5538 27.9224 22.5428 27.8549 22.5453C27.7873 22.5478 27.7209 22.5637 27.6596 22.5921L23.8625 24.2995C23.7382 24.3554 23.6412 24.4583 23.5925 24.5857C23.5439 24.713 23.5477 24.8544 23.603 24.979L24.764 27.557C25.1559 27.4744 25.539 27.3544 25.9079 27.1985C27.2442 26.634 28.3393 25.6174 29.0015 24.3268Z" fill="#B11A31"/>
<path d="M23.719 26.5502C26.9155 26.5502 29.5068 23.9589 29.5068 20.7624C29.5068 17.5659 26.9155 14.9746 23.719 14.9746C20.5224 14.9746 17.9312 17.5659 17.9312 20.7624C17.9312 23.9589 20.5224 26.5502 23.719 26.5502Z" fill="#F8881B"/>
<path d="M23.7191 25.8738C26.5422 25.8738 28.8308 23.5852 28.8308 20.7621C28.8308 17.939 26.5422 15.6504 23.7191 15.6504C20.896 15.6504 18.6074 17.939 18.6074 20.7621C18.6074 23.5852 20.896 25.8738 23.7191 25.8738Z" fill="#F08000"/>
<path d="M23.719 25.3007C26.2253 25.3007 28.257 23.269 28.257 20.7627C28.257 18.2564 26.2253 16.2246 23.719 16.2246C21.2127 16.2246 19.1809 18.2564 19.1809 20.7627C19.1809 23.269 21.2127 25.3007 23.719 25.3007Z" fill="#F4C23F"/>
<path d="M27.762 14.0718C27.8892 13.9972 27.9996 13.8972 28.0864 13.7781C27.6391 13.102 27.3249 12.1425 26.642 11.9205C26.4064 11.8454 26.1503 11.8693 25.8874 11.9479C25.8074 12.1026 25.7674 12.2749 25.771 12.449C25.7746 12.6231 25.8216 12.7936 25.9078 12.9449L26.3415 13.6927C26.48 13.931 26.7072 14.1046 26.9735 14.1757C27.2397 14.2467 27.5232 14.2094 27.762 14.0718Z" fill="#FAD564"/>
<path d="M23.743 13.0618C23.8129 12.9545 23.8626 12.8353 23.8898 12.7101C23.8331 12.7169 23.7761 12.7204 23.7191 12.7204C22.8825 12.7204 21.9264 11.8906 21.1205 11.877C21.0937 12.0718 21.1228 12.2702 21.2044 12.4492C21.286 12.6281 21.4168 12.7802 21.5815 12.8877L22.3054 13.3623C22.4195 13.437 22.5472 13.4885 22.6812 13.5139C22.8153 13.5392 22.9529 13.5379 23.0865 13.51C23.22 13.4821 23.3467 13.4281 23.4593 13.3512C23.572 13.2743 23.6683 13.176 23.743 13.0618Z" fill="#FAD564"/>
<path d="M31.5148 18.3811C31.2245 17.4899 31.9074 16.0967 31.3679 15.3558C31.0265 14.888 30.2991 14.7992 29.6162 14.666C29.435 14.974 29.355 15.3311 29.3874 15.687L29.524 17.0802C29.545 17.3004 29.6092 17.5143 29.7128 17.7097C29.8165 17.9051 29.9577 18.0781 30.1283 18.2189C30.299 18.3597 30.4956 18.4655 30.7072 18.5303C30.9187 18.595 31.1409 18.6174 31.3611 18.5963C31.437 18.5893 31.5124 18.5767 31.5865 18.5587C31.5582 18.5014 31.5342 18.442 31.5148 18.3811Z" fill="#FAD564"/>
<path d="M21.963 29.092C22.141 28.7068 21.973 28.2502 21.5878 28.0723C21.2026 27.8943 20.7461 28.0623 20.5681 28.4474L19.9835 29.7127C19.8055 30.0979 19.9735 30.5545 20.3586 30.7324C20.7438 30.9104 21.2004 30.7425 21.3783 30.3573L21.963 29.092Z" fill="#F44533"/>
<path d="M29.9906 26.5105C29.8181 26.1228 29.3639 25.9485 28.9763 26.1211C28.5887 26.2937 28.4143 26.7478 28.5869 27.1355L29.1538 28.4088C29.3264 28.7964 29.7806 28.9708 30.1682 28.7982C30.5558 28.6256 30.7302 28.1715 30.5576 27.7838L29.9906 26.5105Z" fill="#F44533"/>
<path d="M45.2824 57.2031H36.7014C36.3035 57.2031 35.981 57.5255 35.981 57.9231C35.981 58.3207 36.3035 58.6431 36.7014 58.6431H45.2824C45.6803 58.6431 46.0029 58.3207 46.0029 57.9231C46.0029 57.5255 45.6803 57.2031 45.2824 57.2031Z" fill="#64639C"/>
<path d="M51.4117 60.082H36.6366C36.1482 60.082 35.7522 60.478 35.7522 60.9664V60.9671C35.7522 61.4555 36.1482 61.8515 36.6366 61.8515H51.4117C51.9001 61.8515 52.2961 61.4555 52.2961 60.9671V60.9664C52.2961 60.478 51.9001 60.082 51.4117 60.082Z" fill="#64639C"/>
<path d="M49.3562 16.3438H41.4684C40.6952 16.3438 40.0684 16.9699 40.0684 17.7422C40.0684 18.5146 40.6952 19.1407 41.4684 19.1407H49.3562C50.1294 19.1407 50.7562 18.5146 50.7562 17.7422C50.7562 16.9699 50.1294 16.3438 49.3562 16.3438Z" fill="#FAD564"/>
<path d="M55.8609 23.199C55.8609 22.2618 55.1019 21.502 54.1656 21.502C53.2293 21.502 52.4702 22.2618 52.4702 23.199V29.2521C52.4702 30.1894 53.2293 30.9492 54.1656 30.9492C55.1019 30.9492 55.8609 30.1894 55.8609 29.2521V23.199Z" fill="#FAD564"/>
<path d="M42.8034 50.9498C42.8034 50.45 42.3983 50.0449 41.8985 50.0449C41.3988 50.0449 40.9937 50.45 40.9937 50.9498V53.7928C40.9937 54.2926 41.3988 54.6977 41.8985 54.6977C42.3983 54.6977 42.8034 54.2926 42.8034 53.7928V50.9498Z" fill="#FAD564"/>
</svg>
