<svg width="24" height="24" viewBox="0 0 24 24" fill="none" xmlns="http://www.w3.org/2000/svg">
<path d="M9.55566 6.49978C9.55566 6.33771 9.62005 6.18227 9.73465 6.06766C9.84926 5.95306 10.0047 5.88867 10.1668 5.88867H15.0557C15.2177 5.88867 15.3732 5.95306 15.4878 6.06766C15.6024 6.18227 15.6668 6.33771 15.6668 6.49978C15.6668 6.66186 15.6024 6.8173 15.4878 6.9319C15.3732 7.04651 15.2177 7.11089 15.0557 7.11089H10.1668C10.0047 7.11089 9.84926 7.04651 9.73465 6.9319C9.62005 6.8173 9.55566 6.66186 9.55566 6.49978ZM10.1668 8.33312C10.0047 8.33312 9.84926 8.3975 9.73465 8.51211C9.62005 8.62671 9.55566 8.78215 9.55566 8.94423C9.55566 9.1063 9.62005 9.26174 9.73465 9.37635C9.84926 9.49095 10.0047 9.55534 10.1668 9.55534H15.0557C15.2177 9.55534 15.3732 9.49095 15.4878 9.37635C15.6024 9.26174 15.6668 9.1063 15.6668 8.94423C15.6668 8.78215 15.6024 8.62671 15.4878 8.51211C15.3732 8.3975 15.2177 8.33312 15.0557 8.33312H10.1668ZM9.55566 14.4442C9.55566 14.2822 9.62005 14.1267 9.73465 14.0121C9.84926 13.8975 10.0047 13.8331 10.1668 13.8331H15.0557C15.2177 13.8331 15.3732 13.8975 15.4878 14.0121C15.6024 14.1267 15.6668 14.2822 15.6668 14.4442C15.6668 14.6063 15.6024 14.7617 15.4878 14.8763C15.3732 14.991 15.2177 15.0553 15.0557 15.0553H10.1668C10.0047 15.0553 9.84926 14.991 9.73465 14.8763C9.62005 14.7617 9.55566 14.6063 9.55566 14.4442ZM10.1668 16.2776C10.0047 16.2776 9.84926 16.3419 9.73465 16.4566C9.62005 16.5712 9.55566 16.7266 9.55566 16.8887C9.55566 17.0507 9.62005 17.2062 9.73465 17.3208C9.84926 17.4354 10.0047 17.4998 10.1668 17.4998H15.0557C15.2177 17.4998 15.3732 17.4354 15.4878 17.3208C15.6024 17.2062 15.6668 17.0507 15.6668 16.8887C15.6668 16.7266 15.6024 16.5712 15.4878 16.4566C15.3732 16.3419 15.2177 16.2776 15.0557 16.2776H10.1668Z" fill="#444444"/>
<path fill-rule="evenodd" clip-rule="evenodd" d="M3.44434 13.8338C3.44434 13.6717 3.50872 13.5163 3.62333 13.4016C3.73793 13.287 3.89337 13.2227 4.05545 13.2227H7.111C7.27308 13.2227 7.42852 13.287 7.54312 13.4016C7.65773 13.5163 7.72211 13.6717 7.72211 13.8338V16.8893C7.72211 17.0514 7.65773 17.2068 7.54312 17.3214C7.42852 17.436 7.27308 17.5004 7.111 17.5004H4.05545C3.89337 17.5004 3.73793 17.436 3.62333 17.3214C3.50872 17.2068 3.44434 17.0514 3.44434 16.8893V13.8338ZM4.66656 14.4449V16.2782H6.49989V14.4449H4.66656Z" fill="#444444"/>
<path d="M8.15423 6.93214C8.26555 6.81688 8.32714 6.66252 8.32575 6.50229C8.32436 6.34205 8.26009 6.18878 8.14678 6.07547C8.03348 5.96217 7.8802 5.8979 7.71997 5.89651C7.55974 5.89512 7.40537 5.95671 7.29012 6.06803L5.27773 8.08042L4.48756 7.29025C4.3723 7.17893 4.21794 7.11734 4.05771 7.11873C3.89747 7.12012 3.7442 7.18439 3.63089 7.2977C3.51759 7.411 3.45332 7.56428 3.45193 7.72451C3.45054 7.88474 3.51213 8.03911 3.62345 8.15436L5.27773 9.80864L8.15423 6.93214Z" fill="#444444"/>
<path fill-rule="evenodd" clip-rule="evenodd" d="M3.44444 1C2.79614 1 2.17438 1.25754 1.71596 1.71596C1.25754 2.17438 1 2.79614 1 3.44444V20.5556C1 21.2039 1.25754 21.8256 1.71596 22.284C2.17438 22.7425 2.79614 23 3.44444 23H15.6667C16.315 23 16.9367 22.7425 17.3951 22.284C17.8536 21.8256 18.1111 21.2039 18.1111 20.5556V3.44444C18.1111 2.79614 17.8536 2.17438 17.3951 1.71596C16.9367 1.25754 16.315 1 15.6667 1H3.44444ZM2.22222 3.44444C2.22222 3.12029 2.35099 2.80941 2.5802 2.5802C2.80941 2.35099 3.12029 2.22222 3.44444 2.22222H15.6667C15.9908 2.22222 16.3017 2.35099 16.5309 2.5802C16.7601 2.80941 16.8889 3.12029 16.8889 3.44444V20.5556C16.8889 20.8797 16.7601 21.1906 16.5309 21.4198C16.3017 21.649 15.9908 21.7778 15.6667 21.7778H3.44444C3.12029 21.7778 2.80941 21.649 2.5802 21.4198C2.35099 21.1906 2.22222 20.8797 2.22222 20.5556V3.44444ZM19.3333 7.11111C19.3333 6.62488 19.5265 6.15857 19.8703 5.81475C20.2141 5.47093 20.6804 5.27778 21.1667 5.27778C21.6529 5.27778 22.1192 5.47093 22.463 5.81475C22.8068 6.15857 23 6.62488 23 7.11111V19.5185L21.1667 22.2685L19.3333 19.5185V7.11111ZM21.1667 6.5C21.0046 6.5 20.8492 6.56438 20.7345 6.67899C20.6199 6.7936 20.5556 6.94903 20.5556 7.11111V8.33333H21.7778V7.11111C21.7778 6.94903 21.7134 6.7936 21.5988 6.67899C21.4842 6.56438 21.3287 6.5 21.1667 6.5ZM21.1667 20.0648L20.5556 19.1482V9.55556H21.7778V19.1482L21.1667 20.0648Z" fill="#444444"/>
</svg>
