<svg width="50" height="59" viewBox="0 0 50 59" fill="none" xmlns="http://www.w3.org/2000/svg">
<path d="M44.7863 34.6264C44.7895 33.7026 45.0906 32.8045 45.6449 32.0654C46.1991 31.3264 46.977 30.7858 47.863 30.5241C48.2061 30.4258 48.5079 30.2187 48.723 29.9339C48.9381 29.6491 49.0548 29.3021 49.0555 28.9452V22.3243C49.0549 22.1218 49.0142 21.9214 48.9358 21.7347C48.8575 21.548 48.743 21.3786 48.5989 21.2362C48.4548 21.0939 48.284 20.9815 48.0963 20.9055C47.9086 20.8294 47.7077 20.7913 47.5052 20.7931C46.1922 20.8082 44.8812 20.9022 43.5794 21.0746C43.3632 21.1037 43.1433 21.0865 42.9342 21.0239C42.7252 20.9614 42.5319 20.8551 42.3671 20.712C42.2024 20.569 42.07 20.3925 41.9789 20.1942C41.8877 19.996 41.8398 19.7806 41.8384 19.5625V15.4936L41.7954 15.1454L41.7096 14.5539C41.7096 14.4346 41.6666 14.3154 41.6428 14.1961C41.6189 14.0769 41.5712 13.8145 41.5283 13.6189C41.4997 13.5092 41.4758 13.3948 41.4472 13.2803C41.3995 13.0799 41.3471 12.8844 41.2898 12.684C41.2612 12.5886 41.2373 12.4884 41.2087 12.3883C41.1372 12.1641 41.0656 11.9447 40.9893 11.7205C40.9654 11.6537 40.9464 11.5869 40.9225 11.5201C40.711 10.9294 40.4657 10.3512 40.1879 9.78858C40.1819 9.77025 40.174 9.75265 40.1641 9.7361C40.0353 9.47852 39.9017 9.22093 39.7634 8.97289L39.6775 8.82502C39.5535 8.60559 39.4247 8.38617 39.2911 8.17629C39.2578 8.11905 39.2196 8.06658 39.1862 8.0141C39.0526 7.80422 38.9143 7.59434 38.7712 7.39399L38.6663 7.24612C38.5136 7.03624 38.3562 6.82636 38.1893 6.62124L38.1082 6.52107C36.4782 4.4861 34.4118 2.84353 32.0615 1.71479C29.7113 0.586043 27.1374 0 24.5301 0C21.9229 0 19.349 0.586043 16.9987 1.71479C14.6485 2.84353 12.582 4.4861 10.9521 6.52107L10.871 6.62124C10.7088 6.82636 10.5514 7.03624 10.394 7.24612C10.3606 7.29859 10.3224 7.34629 10.2891 7.39399C10.146 7.59911 10.0076 7.80422 9.87406 8.0141C9.84067 8.06658 9.80251 8.11905 9.76912 8.17629C9.63556 8.38617 9.50677 8.60559 9.38274 8.82502L9.29689 8.97289C9.15855 9.22093 9.02499 9.47852 8.8962 9.7361C8.88631 9.75265 8.8783 9.77025 8.87234 9.78858C8.59411 10.3504 8.35038 10.9286 8.14252 11.5201C8.1139 11.5869 8.09482 11.6537 8.07097 11.7252C7.99465 11.9447 7.92309 12.1641 7.85631 12.3883C7.82292 12.4884 7.79908 12.5886 7.77046 12.6888C7.71321 12.8844 7.66075 13.0799 7.61305 13.2803C7.58443 13.3948 7.56057 13.5092 7.53195 13.6189C7.49379 13.8145 7.45086 14.0053 7.41747 14.1961C7.38408 14.3869 7.37454 14.4346 7.35069 14.5539C7.32207 14.7495 7.29345 14.945 7.2696 15.1454C7.2696 15.2599 7.23621 15.3791 7.2219 15.4984C7.2219 15.4984 7.2219 15.527 7.2219 15.5461V19.5672C7.22193 19.7854 7.17517 20.0011 7.08479 20.1997C6.9944 20.3983 6.86249 20.5752 6.69794 20.7185C6.5334 20.8618 6.34004 20.9682 6.1309 21.0304C5.92177 21.0927 5.70171 21.1094 5.48558 21.0794C4.18062 20.9069 2.86649 20.813 1.55028 20.7979C1.34777 20.796 1.14689 20.8342 0.959191 20.9102C0.771496 20.9863 0.600697 21.0987 0.456613 21.241C0.31253 21.3833 0.198009 21.5527 0.119645 21.7395C0.0412811 21.9262 0.000620131 22.1266 1.47609e-09 22.3291V28.95C0.000685509 29.3069 0.117371 29.6539 0.33247 29.9387C0.547569 30.2235 0.849423 30.4306 1.19252 30.5289C2.06745 30.8006 2.83251 31.3451 3.37583 32.0828C3.91915 32.8205 4.21224 33.7126 4.21224 34.6288C4.21224 35.5449 3.91915 36.4371 3.37583 37.1747C2.83251 37.9124 2.06745 38.4569 1.19252 38.7286C0.849423 38.8269 0.547569 39.0341 0.33247 39.3189C0.117371 39.6036 0.000685509 39.9506 1.47609e-09 40.3075V48.0685C-1.7681e-05 48.4708 0.158833 48.8569 0.442005 49.1428C0.725178 49.4286 1.10977 49.5911 1.51211 49.5949C9.66085 49.6597 17.4947 52.7504 23.4926 58.2669C23.7748 58.5247 24.1432 58.6676 24.5254 58.6676C24.9075 58.6676 25.2759 58.5247 25.5581 58.2669C31.5565 52.7476 39.3924 49.6551 47.5434 49.5901C47.9457 49.5863 48.3303 49.4239 48.6135 49.138C48.8967 48.8521 49.0555 48.4661 49.0555 48.0637V40.3028C49.0548 39.9459 48.9381 39.5989 48.723 39.3141C48.5079 39.0293 48.2061 38.8222 47.863 38.7239C46.9778 38.4624 46.2005 37.9226 45.6463 37.1845C45.0921 36.4464 44.7905 35.5494 44.7863 34.6264ZM36.0952 21.9189C36.0949 22.2219 36.0039 22.5179 35.8338 22.7687C35.6638 23.0195 35.4225 23.2136 35.1412 23.3261C31.6846 24.7668 28.4999 26.7882 25.725 29.303C25.3936 29.6026 24.9627 29.7686 24.5158 29.7686C24.069 29.7686 23.6381 29.6026 23.3066 29.303C20.5394 26.7899 17.3629 24.7684 13.9143 23.3261C13.639 23.2095 13.4044 23.0142 13.2397 22.7647C13.0751 22.5152 12.9878 22.2226 12.9889 21.9237V19.5863C12.9889 18.5135 13.4151 17.4846 14.1737 16.726C14.9323 15.9675 15.9611 15.5413 17.034 15.5413H21.5226C21.9205 15.5402 22.3024 15.3842 22.5874 15.1064C22.8723 14.8286 23.0379 14.4508 23.049 14.053C23.0684 13.1398 23.1949 12.2321 23.4259 11.3484C23.5434 11.8057 23.6899 12.255 23.8647 12.6936C24.2035 13.5415 24.7896 14.2678 25.5467 14.7783C26.3038 15.2887 27.197 15.5595 28.1101 15.5556C27.8935 14.164 27.9194 12.7455 28.1864 11.3627C28.4164 12.5618 28.8367 13.7165 29.4314 14.7828C29.5645 15.0183 29.758 15.214 29.9919 15.3499C30.2258 15.4857 30.4917 15.5567 30.7622 15.5556H32.0311C32.5623 15.5556 33.0883 15.6602 33.579 15.8635C34.0698 16.0668 34.5157 16.3647 34.8913 16.7404C35.267 17.116 35.5649 17.5619 35.7682 18.0527C35.9715 18.5434 36.0761 19.0694 36.0761 19.6006L36.0952 21.9189Z" fill="#6A37F8"/>
<path d="M24.6565 23.6359L26.4119 22.4911L24.6565 19.2617V23.6359Z" fill="#6A37F8"/>
<path d="M24.7947 25.6406C24.6442 25.6108 24.4881 25.6301 24.3494 25.6958C24.2107 25.7615 24.0968 25.8701 24.0245 26.0054C23.9523 26.1408 23.9254 26.2958 23.948 26.4476C23.9705 26.5994 24.0413 26.7399 24.1498 26.8484C24.2583 26.9569 24.3988 27.0277 24.5506 27.0502C24.7024 27.0728 24.8574 27.0459 24.9927 26.9736C25.1281 26.9014 25.2366 26.7875 25.3023 26.6488C25.368 26.5101 25.3874 26.354 25.3576 26.2035C25.33 26.0644 25.2619 25.9367 25.1617 25.8365C25.0614 25.7363 24.9337 25.6681 24.7947 25.6406Z" fill="#6A37F8"/>
<path d="M31.43 18.8747C31.1287 18.8153 30.8163 18.8543 30.5389 18.9861C30.2616 19.1178 30.0339 19.3353 29.8897 19.6064C29.7454 19.8775 29.6922 20.1878 29.7378 20.4914C29.7835 20.7951 29.9256 21.076 30.1432 21.2927C30.3608 21.5094 30.6423 21.6503 30.9462 21.6947C31.25 21.7391 31.5601 21.6845 31.8306 21.5391C32.101 21.3937 32.3176 21.1651 32.4481 20.8872C32.5787 20.6093 32.6164 20.2967 32.5557 19.9957C32.4998 19.7185 32.363 19.4642 32.1627 19.2646C31.9623 19.0651 31.7074 18.9295 31.43 18.8747Z" fill="#6A37F8"/>
<path d="M18.1884 18.8752C17.9579 18.8293 17.7196 18.8409 17.4946 18.9089C17.2696 18.977 17.0648 19.0994 16.8984 19.2654C16.7319 19.4313 16.6089 19.6358 16.5402 19.8606C16.4715 20.0854 16.4593 20.3236 16.5046 20.5543C16.5596 20.8323 16.696 21.0878 16.8965 21.2882C17.0969 21.4886 17.3523 21.625 17.6303 21.68C17.9955 21.7377 18.3688 21.6519 18.6721 21.4405C18.9754 21.229 19.185 20.9084 19.2572 20.5458C19.3293 20.1832 19.2584 19.8068 19.0591 19.4954C18.8599 19.184 18.5479 18.9617 18.1884 18.8752Z" fill="#6A37F8"/>
</svg>
