<svg width="24" height="24" viewBox="0 0 24 24" fill="none" xmlns="http://www.w3.org/2000/svg">
<path d="M21.4239 24.0006C15.142 24.0006 8.86013 24.0006 2.57825 24.0006C2.34825 23.8481 2.28638 23.635 2.28638 23.3619C2.29263 15.7875 2.29263 8.21312 2.28638 0.63875C2.28638 0.365625 2.34763 0.1525 2.57825 0C7.532 0 12.4851 0 17.4389 0C17.5289 0.084375 17.6214 0.165625 17.7082 0.2525C18.957 1.5 20.2032 2.75062 21.4564 3.99437C21.6351 4.17187 21.7151 4.35812 21.7145 4.61437C21.7089 10.8631 21.7089 17.1119 21.7151 23.3606C21.7157 23.6344 21.6532 23.8475 21.4239 24.0006ZM17.0157 0.96375C12.4083 0.96375 7.8295 0.96375 3.25825 0.96375C3.25825 8.33687 3.25825 15.6906 3.25825 23.0419C9.09888 23.0419 14.922 23.0419 20.7489 23.0419C20.7489 16.9219 20.7489 10.8181 20.7489 4.69C20.652 4.69 20.5676 4.69 20.4839 4.69C19.5545 4.69 18.6251 4.69 17.6951 4.69C17.1664 4.69 17.0157 4.5375 17.0157 4.00437C17.0151 2.99687 17.0157 1.98937 17.0157 0.96375Z" fill="#6A37F8"/>
<path d="M13.8714 7.87289C14.2195 7.85852 14.5633 7.65102 14.7901 7.25164C14.9258 7.01289 14.9695 7.00477 15.167 7.19977C15.3951 7.42477 15.6226 7.64977 15.8458 7.87977C16.1514 8.19414 16.1583 8.51977 15.8533 8.82539C14.762 9.92164 13.6683 11.0154 12.572 12.1066C12.2751 12.4023 11.947 12.3991 11.6426 12.1066C11.4064 11.8791 11.1764 11.6448 10.9458 11.411C10.7576 11.2204 10.7664 11.1716 11.007 11.036C11.5039 10.7548 11.7314 10.2148 11.5776 9.68039C11.4301 9.16789 10.9226 8.78289 10.4033 8.81977C9.96826 8.85039 9.64326 9.07852 9.42576 9.45602C9.28139 9.70602 9.24764 9.71227 9.03701 9.50414C8.82639 9.29539 8.61639 9.08539 8.40701 8.87414C8.03951 8.50289 8.04264 8.20102 8.41701 7.82477C8.63201 7.60914 8.84389 7.38977 9.06451 7.17977C9.20451 7.04664 9.20201 6.96414 9.02076 6.86852C8.56389 6.62727 8.32889 6.23664 8.36389 5.72164C8.40076 5.17664 8.74201 4.79289 9.27826 4.62977C9.74326 4.48789 10.3183 4.74414 10.5901 5.21477C10.7483 5.48852 10.752 5.48914 10.9814 5.26039C11.197 5.04539 11.4095 4.82664 11.6283 4.61477C11.9414 4.31164 12.2645 4.31039 12.577 4.61289C12.8183 4.84664 13.0558 5.08477 13.2901 5.32477C13.4501 5.48852 13.442 5.54852 13.2408 5.65727C12.8476 5.86914 12.6064 6.19352 12.5695 6.63602C12.5176 7.29289 13.0901 7.87477 13.8714 7.87289Z" fill="#6A37F8"/>
<path d="M7.87632 18.3531C7.43132 18.6169 7.00507 18.7638 6.53007 18.76C5.40444 18.7513 4.41319 17.9506 4.21819 16.8788C4.00694 15.7181 4.61382 14.6219 5.69694 14.2069C6.59069 13.8644 7.62382 14.1125 8.26569 14.8244C8.92444 15.555 9.07631 16.5944 8.62756 17.4575C8.53381 17.6375 8.55194 17.7369 8.69382 17.8706C8.95632 18.1188 8.96819 18.3963 8.75256 18.6088C8.53757 18.8206 8.27069 18.7988 8.01382 18.5425C7.95882 18.4875 7.92132 18.4156 7.87632 18.3531ZM7.80194 16.9431C8.07569 16.3038 7.84007 15.5788 7.25257 15.2213C6.65132 14.855 5.89069 14.9888 5.44132 15.54C5.01007 16.0694 5.04132 16.8594 5.51319 17.36C5.94382 17.8169 6.67007 17.9475 7.09257 17.6438C6.71194 17.1881 6.65694 16.9706 6.86632 16.745C7.09069 16.5025 7.29944 16.545 7.80194 16.9431Z" fill="#6A37F8"/>
<path d="M13.2895 15.9149C13.2895 16.258 13.2901 16.6018 13.2895 16.9449C13.287 17.9062 12.7814 18.5293 11.8414 18.7305C10.9614 18.9187 10.0095 18.3649 9.7814 17.5218C9.73702 17.3587 9.72202 17.183 9.72077 17.013C9.71452 16.2249 9.7089 15.4362 9.72577 14.6487C9.7289 14.4912 9.79765 14.3118 9.89265 14.1855C10.0083 14.0318 10.2033 14.0174 10.3851 14.0943C10.6064 14.188 10.6901 14.3705 10.6901 14.6005C10.6901 15.4043 10.6901 16.208 10.6908 17.0124C10.6914 17.4318 10.8976 17.6837 11.3208 17.7837C11.6601 17.8637 12.127 17.6699 12.2645 17.3737C12.3114 17.2724 12.3239 17.148 12.3245 17.0343C12.3295 16.2224 12.3258 15.4112 12.3283 14.5993C12.3289 14.3105 12.4826 14.1062 12.7189 14.063C13.0239 14.0074 13.2776 14.2168 13.2858 14.5568C13.297 15.0093 13.2883 15.4618 13.2883 15.9149C13.2883 15.9149 13.2889 15.9149 13.2895 15.9149Z" fill="#6A37F8"/>
<path d="M17.7545 17.8072C18.3026 17.8072 18.802 17.806 19.3014 17.8078C19.6382 17.8091 19.8389 17.9935 19.8351 18.2916C19.8314 18.5778 19.6357 18.7566 19.3082 18.7578C18.512 18.761 17.7157 18.7566 16.9195 18.761C16.7151 18.7622 16.5489 18.7022 16.4464 18.521C16.3389 18.3316 16.3726 18.1503 16.4895 17.9722C17.0914 17.0516 17.6901 16.1291 18.2889 15.2072C18.322 15.156 18.3507 15.1022 18.3976 15.0216C18.2926 15.0166 18.2114 15.0103 18.1301 15.0097C17.7239 15.0078 17.3182 15.0141 16.9126 15.0041C16.6507 14.9978 16.4557 14.7872 16.4545 14.536C16.4532 14.2872 16.652 14.0635 16.9076 14.0616C17.7195 14.0541 18.5314 14.0503 19.3432 14.0628C19.6732 14.0678 19.8745 14.4247 19.7382 14.7266C19.697 14.8185 19.6376 14.9022 19.582 14.9866C19.0245 15.8428 18.4664 16.6991 17.9089 17.5553C17.8639 17.6247 17.822 17.6972 17.7545 17.8072Z" fill="#6A37F8"/>
<path d="M15.375 16.423C15.375 17.0236 15.3781 17.6242 15.3737 18.2248C15.3719 18.4923 15.2319 18.6955 15.0187 18.7436C14.8019 18.7923 14.605 18.7405 14.4925 18.5398C14.4344 18.4367 14.4044 18.3042 14.4037 18.1842C14.3975 16.9986 14.3975 15.813 14.4012 14.6273C14.4025 14.2748 14.5937 14.0598 14.885 14.0586C15.185 14.0573 15.3737 14.2792 15.375 14.6448C15.3769 15.2373 15.3756 15.8305 15.375 16.423Z" fill="#6A37F8"/>
</svg>
