<svg width="80" height="80" viewBox="0 0 80 80" fill="none" xmlns="http://www.w3.org/2000/svg">
<rect width="80" height="80" rx="7" fill="#EEE9FE"/>
<g clip-path="url(#clip0_649_2250)">
<path d="M58.7031 58.7036C69.0328 48.3739 69.0328 31.6261 58.7031 21.2964C48.3734 10.9667 31.6256 10.9667 21.2959 21.2964C10.9662 31.6261 10.9662 48.3739 21.2959 58.7036C31.6256 69.0333 48.3734 69.0333 58.7031 58.7036Z" fill="#ABCE00"/>
<path d="M40.0002 66.5765C25.3469 66.5765 13.4248 54.6556 13.4248 40.0011C13.4248 25.3467 25.3469 13.4258 40.0002 13.4258C54.6535 13.4258 66.5755 25.3478 66.5755 40.0011C66.5755 54.6544 54.6535 66.5765 40.0002 66.5765ZM40.0002 13.6742C25.4837 13.6742 13.6732 25.4847 13.6732 40.0011C13.6732 54.5176 25.4837 66.3281 40.0002 66.3281C54.5166 66.3281 66.3271 54.5176 66.3271 40.0011C66.3271 25.4847 54.5166 13.6742 40.0002 13.6742Z" fill="#0F0F0F"/>
<path d="M52.0684 56.9932H30.1632C28.4543 56.9932 27.064 55.6028 27.064 53.8939V52.6071C27.064 50.8982 28.4543 49.5078 30.1632 49.5078H52.0684C52.1374 49.5078 52.1926 49.563 52.1926 49.632V56.8701C52.1926 56.9368 52.1374 56.9932 52.0684 56.9932ZM30.1632 49.7551C28.5912 49.7551 27.3112 51.0339 27.3112 52.6071V53.8939C27.3112 55.466 28.59 56.7459 30.1632 56.7459H51.9442V49.7562H30.1632V49.7551Z" fill="#0F0F0F"/>
<path d="M27.1885 26.445V27.089V27.7318V52.6063C27.1885 50.9629 28.5213 49.6301 30.1647 49.6301V23.4688C28.5202 23.4688 27.1885 24.8016 27.1885 26.445Z" fill="#E6D48E"/>
<path d="M27.1882 52.7305C27.1192 52.7305 27.064 52.6753 27.064 52.6063V26.445C27.064 24.7361 28.4543 23.3457 30.1632 23.3457C30.2322 23.3457 30.2874 23.4009 30.2874 23.4699V49.6313C30.2874 49.7003 30.2322 49.7555 30.1632 49.7555C28.5912 49.7555 27.3112 51.0343 27.3112 52.6075C27.3124 52.6753 27.256 52.7305 27.1882 52.7305ZM30.0402 23.5964C28.5245 23.662 27.3124 24.9143 27.3124 26.445V51.3919C27.7701 50.3201 28.8154 49.5577 30.0402 49.5094V23.5964Z" fill="#0F0F0F"/>
<path d="M30.1636 23.4648V49.6273H52.0688V30.7029V27.085V23.4648H30.1636Z" fill="#FFED9E"/>
<path d="M52.0685 49.7527H30.1633C30.0943 49.7527 30.0391 49.6975 30.0391 49.6285V23.466C30.0391 23.397 30.0943 23.3418 30.1633 23.3418H52.0685C52.1375 23.3418 52.1927 23.397 52.1927 23.466V49.6273C52.1927 49.6963 52.1375 49.7527 52.0685 49.7527ZM30.2875 49.5043H51.9443V23.5902H30.2875V49.5043Z" fill="#0F0F0F"/>
<path d="M48.184 27.8887H34.0493V29.7068H48.184V27.8887Z" fill="#E6D48E"/>
<path d="M48.1837 29.8322H34.049C33.98 29.8322 33.9248 29.777 33.9248 29.708V27.8898C33.9248 27.8208 33.98 27.7656 34.049 27.7656H48.1837C48.2527 27.7656 48.3079 27.8208 48.3079 27.8898V29.708C48.3079 29.777 48.2515 29.8322 48.1837 29.8322ZM34.1732 29.5838H48.0595V28.0129H34.1732V29.5838Z" fill="#0F0F0F"/>
<path d="M42.6042 31.9395H34.0493V33.7576H42.6042V31.9395Z" fill="#E6D48E"/>
<path d="M42.6039 33.883H34.049C33.98 33.883 33.9248 33.8278 33.9248 33.7588V31.9406C33.9248 31.8716 33.98 31.8164 34.049 31.8164H42.6039C42.6729 31.8164 42.7281 31.8716 42.7281 31.9406V33.7588C42.7281 33.8278 42.6717 33.883 42.6039 33.883ZM34.1732 33.6346H42.4797V32.0648H34.1732V33.6346Z" fill="#0F0F0F"/>
<path d="M45.9518 40H34.0493V45.2072H45.9518V40Z" fill="#E6D48E"/>
<path d="M45.9515 45.3326H34.049C33.98 45.3326 33.9248 45.2774 33.9248 45.2084V40.0012C33.9248 39.9322 33.98 39.877 34.049 39.877H45.9515C46.0205 39.877 46.0757 39.9322 46.0757 40.0012V45.2084C46.0757 45.2774 46.0205 45.3326 45.9515 45.3326ZM34.1732 45.0853H45.8285V40.1254H34.1732V45.0853Z" fill="#0F0F0F"/>
<path d="M49.3405 52.0726H30.4943C30.4253 52.0726 30.3701 52.0174 30.3701 51.9484C30.3701 51.8794 30.4253 51.8242 30.4943 51.8242H49.3405C49.4095 51.8242 49.4647 51.8794 49.4647 51.9484C49.4647 52.0174 49.4095 52.0726 49.3405 52.0726Z" fill="#0F0F0F"/>
<path d="M54.0106 54.6293H36.4972C36.4282 54.6293 36.373 54.5741 36.373 54.5051C36.373 54.4361 36.4282 54.3809 36.4972 54.3809H54.0106C54.0796 54.3809 54.1348 54.4361 54.1348 54.5051C54.1348 54.5741 54.0796 54.6293 54.0106 54.6293Z" fill="#0F0F0F"/>
<path d="M30.4941 60.9129L32.7872 59.549L35.0815 60.9129V54.5039H30.4941V60.9129Z" fill="#FFA99E"/>
<path d="M35.0815 61.0382C35.0596 61.0382 35.0378 61.0325 35.0182 61.021L32.7884 59.695L30.5585 61.021C30.5206 61.044 30.4723 61.044 30.4343 61.0221C30.3952 61.0003 30.3711 60.9589 30.3711 60.914V54.5051C30.3711 54.4361 30.4263 54.3809 30.4953 54.3809H35.0826C35.1516 54.3809 35.2068 54.4361 35.2068 54.5051V60.914C35.2068 60.9589 35.1827 61.0003 35.1436 61.0221C35.124 61.0325 35.1022 61.0382 35.0815 61.0382ZM32.7872 59.4259C32.8091 59.4259 32.8309 59.4317 32.8505 59.4432L34.9573 60.6955V54.6293H30.6172V60.6955L32.724 59.4432C32.7435 59.4317 32.7654 59.4259 32.7872 59.4259Z" fill="#0F0F0F"/>
<path d="M54.0103 28.0144C53.9413 28.0144 53.8861 27.9592 53.8861 27.8902V21.1742H49.9186C49.8496 21.1742 49.7944 21.119 49.7944 21.05C49.7944 20.981 49.8496 20.9258 49.9186 20.9258H54.0103C54.0793 20.9258 54.1345 20.981 54.1345 21.05V27.8902C54.1345 27.958 54.0793 28.0144 54.0103 28.0144Z" fill="#0F0F0F"/>
<path d="M54.0104 34.8756C53.9414 34.8756 53.8862 34.8204 53.8862 34.7514V30.4113C53.8862 30.3423 53.9414 30.2871 54.0104 30.2871C54.0794 30.2871 54.1346 30.3423 54.1346 30.4113V34.7514C54.1346 34.8204 54.0794 34.8756 54.0104 34.8756Z" fill="#0F0F0F"/>
<path d="M42.1495 58.9281H36.4972C36.4282 58.9281 36.373 58.8729 36.373 58.8039C36.373 58.7349 36.4282 58.6797 36.4972 58.6797H42.1495C42.2185 58.6797 42.2737 58.7349 42.2737 58.8039C42.2737 58.8729 42.2173 58.9281 42.1495 58.9281Z" fill="#0F0F0F"/>
<path d="M29.0892 58.9281H27.0226C26.9536 58.9281 26.8984 58.8729 26.8984 58.8039C26.8984 58.7349 26.9536 58.6797 27.0226 58.6797H29.0892C29.1582 58.6797 29.2134 58.7349 29.2134 58.8039C29.2134 58.8729 29.1582 58.9281 29.0892 58.9281Z" fill="#0F0F0F"/>
<path d="M57.2664 47.8086H54.0107V51.0642H57.2664V47.8086Z" fill="#9BBA00"/>
<path d="M57.2661 51.1896H54.0104C53.9414 51.1896 53.8862 51.1344 53.8862 51.0654V47.8097C53.8862 47.7407 53.9414 47.6855 54.0104 47.6855H57.2661C57.3351 47.6855 57.3903 47.7407 57.3903 47.8097V51.0654C57.3903 51.1344 57.3351 51.1896 57.2661 51.1896ZM54.1346 50.9423H57.1419V47.9339H54.1346V50.9423Z" fill="#0F0F0F"/>
<path d="M57.2664 42.6035H54.0107V45.8592H57.2664V42.6035Z" fill="#9BBA00"/>
<path d="M57.2661 45.9845H54.0104C53.9414 45.9845 53.8862 45.9293 53.8862 45.8603V42.6047C53.8862 42.5357 53.9414 42.4805 54.0104 42.4805H57.2661C57.3351 42.4805 57.3903 42.5357 57.3903 42.6047V45.8603C57.3903 45.9293 57.3351 45.9845 57.2661 45.9845ZM54.1346 45.7361H57.1419V42.7289H54.1346V45.7361Z" fill="#0F0F0F"/>
<path d="M57.2664 37.3945H54.0107V40.6502H57.2664V37.3945Z" fill="#9BBA00"/>
<path d="M57.2661 40.7755H54.0104C53.9414 40.7755 53.8862 40.7203 53.8862 40.6513V37.3957C53.8862 37.3267 53.9414 37.2715 54.0104 37.2715H57.2661C57.3351 37.2715 57.3903 37.3267 57.3903 37.3957V40.6513C57.3903 40.7203 57.3351 40.7755 57.2661 40.7755ZM54.1346 40.5271H57.1419V37.5199H54.1346V40.5271Z" fill="#0F0F0F"/>
<path d="M62.3904 47.8086H59.1348V51.0642H62.3904V47.8086Z" fill="#9BBA00"/>
<path d="M62.3916 51.1896H59.1359C59.0669 51.1896 59.0117 51.1344 59.0117 51.0654V47.8097C59.0117 47.7407 59.0669 47.6855 59.1359 47.6855H62.3916C62.4606 47.6855 62.5158 47.7407 62.5158 47.8097V51.0654C62.5146 51.1344 62.4594 51.1896 62.3916 51.1896ZM59.259 50.9423H62.2662V47.9339H59.259V50.9423Z" fill="#0F0F0F"/>
<path d="M62.3904 42.6035H59.1348V45.8592H62.3904V42.6035Z" fill="#9BBA00"/>
<path d="M62.3916 45.9845H59.1359C59.0669 45.9845 59.0117 45.9293 59.0117 45.8603V42.6047C59.0117 42.5357 59.0669 42.4805 59.1359 42.4805H62.3916C62.4606 42.4805 62.5158 42.5357 62.5158 42.6047V45.8603C62.5146 45.9293 62.4594 45.9845 62.3916 45.9845ZM59.259 45.7361H62.2662V42.7289H59.259V45.7361Z" fill="#0F0F0F"/>
<path d="M62.3904 37.3945H59.1348V40.6502H62.3904V37.3945Z" fill="#9BBA00"/>
<path d="M62.3916 40.7755H59.1359C59.0669 40.7755 59.0117 40.7203 59.0117 40.6513V37.3957C59.0117 37.3267 59.0669 37.2715 59.1359 37.2715H62.3916C62.4606 37.2715 62.5158 37.3267 62.5158 37.3957V40.6513C62.5146 40.7203 62.4594 40.7755 62.3916 40.7755ZM59.259 40.5271H62.2662V37.5199H59.259V40.5271Z" fill="#0F0F0F"/>
<path d="M20.2 42.6035H16.9443V45.8592H20.2V42.6035Z" fill="#9BBA00"/>
<path d="M20.1997 45.9845H16.944C16.875 45.9845 16.8198 45.9293 16.8198 45.8603V42.6047C16.8198 42.5357 16.875 42.4805 16.944 42.4805H20.1997C20.2687 42.4805 20.3239 42.5357 20.3239 42.6047V45.8603C20.3239 45.9293 20.2675 45.9845 20.1997 45.9845ZM17.0682 45.7361H20.0755V42.7289H17.0682V45.7361Z" fill="#0F0F0F"/>
<path d="M20.2 37.3945H16.9443V40.6502H20.2V37.3945Z" fill="#9BBA00"/>
<path d="M20.1997 40.7755H16.944C16.875 40.7755 16.8198 40.7203 16.8198 40.6513V37.3957C16.8198 37.3267 16.875 37.2715 16.944 37.2715H20.1997C20.2687 37.2715 20.3239 37.3267 20.3239 37.3957V40.6513C20.3239 40.7203 20.2675 40.7755 20.1997 40.7755ZM17.0682 40.5271H20.0755V37.5199H17.0682V40.5271Z" fill="#0F0F0F"/>
<path d="M25.324 47.8086H22.0684V51.0642H25.324V47.8086Z" fill="#9BBA00"/>
<path d="M25.3237 51.1896H22.068C21.999 51.1896 21.9438 51.1344 21.9438 51.0654V47.8097C21.9438 47.7407 21.999 47.6855 22.068 47.6855H25.3237C25.3927 47.6855 25.4479 47.7407 25.4479 47.8097V51.0654C25.4479 51.1344 25.3927 51.1896 25.3237 51.1896ZM22.1922 50.9423H25.1995V47.9339H22.1922V50.9423Z" fill="#0F0F0F"/>
<path d="M25.324 42.6035H22.0684V45.8592H25.324V42.6035Z" fill="#9BBA00"/>
<path d="M25.3237 45.9845H22.068C21.999 45.9845 21.9438 45.9293 21.9438 45.8603V42.6047C21.9438 42.5357 21.999 42.4805 22.068 42.4805H25.3237C25.3927 42.4805 25.4479 42.5357 25.4479 42.6047V45.8603C25.4479 45.9293 25.3927 45.9845 25.3237 45.9845ZM22.1922 45.7361H25.1995V42.7289H22.1922V45.7361Z" fill="#0F0F0F"/>
<path d="M15.074 42.6035H11.8184V45.8592H15.074V42.6035Z" fill="#9BBA00"/>
<path d="M15.0737 45.9845H11.818C11.749 45.9845 11.6938 45.9293 11.6938 45.8603V42.6047C11.6938 42.5357 11.749 42.4805 11.818 42.4805H15.0737C15.1427 42.4805 15.1979 42.5357 15.1979 42.6047V45.8603C15.1979 45.9293 15.1427 45.9845 15.0737 45.9845ZM11.9422 45.7361H14.9495V42.7289H11.9422V45.7361Z" fill="#0F0F0F"/>
<path d="M25.324 37.3945H22.0684V40.6502H25.324V37.3945Z" fill="#9BBA00"/>
<path d="M25.3237 40.7755H22.068C21.999 40.7755 21.9438 40.7203 21.9438 40.6513V37.3957C21.9438 37.3267 21.999 37.2715 22.068 37.2715H25.3237C25.3927 37.2715 25.4479 37.3267 25.4479 37.3957V40.6513C25.4479 40.7203 25.3927 40.7755 25.3237 40.7755ZM22.1922 40.5271H25.1995V37.5199H22.1922V40.5271Z" fill="#0F0F0F"/>
<path d="M25.324 32.1875H22.0684V35.4432H25.324V32.1875Z" fill="#9BBA00"/>
<path d="M25.3237 35.5666H22.068C21.999 35.5666 21.9438 35.5114 21.9438 35.4424V32.1867C21.9438 32.1177 21.999 32.0625 22.068 32.0625H25.3237C25.3927 32.0625 25.4479 32.1177 25.4479 32.1867V35.4424C25.4479 35.5114 25.3927 35.5666 25.3237 35.5666ZM22.1922 35.3193H25.1995V32.3121H22.1922V35.3193Z" fill="#0F0F0F"/>
<path d="M67.5159 47.8086H64.2603V51.0642H67.5159V47.8086Z" fill="#9BBA00"/>
<path d="M67.5156 51.1896H64.2599C64.1909 51.1896 64.1357 51.1344 64.1357 51.0654V47.8097C64.1357 47.7407 64.1909 47.6855 64.2599 47.6855H67.5156C67.5846 47.6855 67.6398 47.7407 67.6398 47.8097V51.0654C67.6398 51.1344 67.5846 51.1896 67.5156 51.1896ZM64.3841 50.9423H67.3914V47.9339H64.3841V50.9423Z" fill="#0F0F0F"/>
<path d="M67.5159 42.6035H64.2603V45.8592H67.5159V42.6035Z" fill="#9BBA00"/>
<path d="M67.5156 45.9845H64.2599C64.1909 45.9845 64.1357 45.9293 64.1357 45.8603V42.6047C64.1357 42.5357 64.1909 42.4805 64.2599 42.4805H67.5156C67.5846 42.4805 67.6398 42.5357 67.6398 42.6047V45.8603C67.6398 45.9293 67.5846 45.9845 67.5156 45.9845ZM64.3841 45.7361H67.3914V42.7289H64.3841V45.7361Z" fill="#0F0F0F"/>
<path d="M72.6399 42.6035H69.3843V45.8592H72.6399V42.6035Z" fill="#9BBA00"/>
<path d="M72.6411 45.9845H69.3854C69.3164 45.9845 69.2612 45.9293 69.2612 45.8603V42.6047C69.2612 42.5357 69.3164 42.4805 69.3854 42.4805H72.6411C72.7101 42.4805 72.7653 42.5357 72.7653 42.6047V45.8603C72.7641 45.9293 72.7089 45.9845 72.6411 45.9845ZM69.5085 45.7361H72.5157V42.7289H69.5085V45.7361Z" fill="#0F0F0F"/>
<path d="M45.9512 21.1742H38.6579C38.5889 21.1742 38.5337 21.119 38.5337 21.05C38.5337 20.981 38.5889 20.9258 38.6579 20.9258H45.9512C46.0202 20.9258 46.0754 20.981 46.0754 21.05C46.0754 21.119 46.0202 21.1742 45.9512 21.1742Z" fill="#0F0F0F"/>
<path d="M35.682 21.1742H34.049C33.98 21.1742 33.9248 21.119 33.9248 21.05C33.9248 20.981 33.98 20.9258 34.049 20.9258H35.682C35.751 20.9258 35.8062 20.981 35.8062 21.05C35.8062 21.119 35.751 21.1742 35.682 21.1742Z" fill="#0F0F0F"/>
<path d="M43.3689 18.2718H37.175C37.106 18.2718 37.0508 18.2166 37.0508 18.1476C37.0508 18.0786 37.106 18.0234 37.175 18.0234H43.3689C43.4379 18.0234 43.4931 18.0786 43.4931 18.1476C43.4931 18.2166 43.4379 18.2718 43.3689 18.2718Z" fill="#0F0F0F"/>
<path d="M45.253 62.1019H36.4958C36.4268 62.1019 36.3716 62.0467 36.3716 61.9777C36.3716 61.9087 36.4268 61.8535 36.4958 61.8535H45.253C45.322 61.8535 45.3772 61.9087 45.3772 61.9777C45.3772 62.0467 45.322 62.1019 45.253 62.1019Z" fill="#0F0F0F"/>
</g>
<defs>
<clipPath id="clip0_649_2250">
<rect width="70" height="70" fill="white" transform="translate(5 5)"/>
</clipPath>
</defs>
</svg>
