<svg width="80" height="80" viewBox="0 0 80 80" fill="none" xmlns="http://www.w3.org/2000/svg">
<rect width="80" height="80" rx="7" fill="#EEE9FE"/>
<path d="M59.0858 48.618C58.4022 47.3766 59.2718 46.1133 60.7593 44.5492C63.1163 42.0664 65.6811 36.3078 63.2968 30.4617C63.3132 30.4289 62.8265 29.4445 62.8429 29.4117L61.864 29.3625C61.5522 29.3187 50.7843 29.2969 40.0054 29.2969C29.2265 29.2969 18.4585 29.3187 18.1468 29.3625C18.1468 29.3625 16.6976 30.4289 16.7085 30.4617C14.3296 36.3078 16.889 42.0664 19.246 44.5492C20.728 46.1133 21.5976 47.3766 20.9194 48.618C20.2577 49.8266 18.289 50.0016 18.289 50.0016C18.289 50.0016 18.7429 51.2375 19.8366 51.9047C20.8483 52.5227 22.0952 52.6648 22.9538 52.6867C22.9538 52.6867 26.3171 57.3406 35.1108 57.3406H44.8999C53.6936 57.3406 57.0569 52.6867 57.0569 52.6867C57.9155 52.6648 59.1624 52.5227 60.1741 51.9047C61.2679 51.2375 61.7218 50.0016 61.7218 50.0016C61.7218 50.0016 59.7476 49.8211 59.0858 48.618Z" fill="#543930"/>
<path d="M39.9946 57.3359V52.1734L55.6188 50.9375L57.0407 52.6875C57.0407 52.6875 53.6774 57.3414 44.8837 57.3414L39.9946 57.3359Z" fill="url(#paint0_radial_649_2219)"/>
<path d="M57.0078 50.4285C54.6672 46.8738 59.857 45.5449 59.857 45.5449L59.8625 45.5504C58.9601 46.6715 58.55 47.6504 59.0804 48.6184C59.7422 49.827 61.7109 50.002 61.7109 50.002C61.7109 50.002 59.0257 52.3863 57.0078 50.4285Z" fill="url(#paint1_radial_649_2219)"/>
<path d="M63.3077 30.4625C65.6319 36.1227 63.1874 41.9523 60.896 44.4133C60.5843 44.7523 59.2499 46.0594 58.9437 47.1039C58.9437 47.1039 53.7265 39.825 52.1679 35.5484C51.8562 34.6844 51.5663 33.7984 51.528 32.8797C51.5007 32.1906 51.6046 31.3703 52.0038 30.7852C52.4905 30.0688 63.0288 29.8555 63.0288 29.8555C63.0288 29.8609 63.3077 30.4625 63.3077 30.4625Z" fill="url(#paint2_radial_649_2219)"/>
<path d="M16.703 30.4625C14.3788 36.1227 16.8234 41.9523 19.1148 44.4133C19.4319 44.7523 20.7609 46.0594 21.0671 47.1039C21.0671 47.1039 26.2843 39.825 27.8429 35.5484C28.1601 34.6844 28.4444 33.7984 28.4827 32.8797C28.5101 32.1906 28.4062 31.3703 28.0069 30.7852C27.5202 30.0688 26.9515 30.2602 26.1257 30.2602C24.5507 30.2602 17.6546 29.8555 17.1187 29.8555C17.1241 29.8609 16.703 30.4625 16.703 30.4625Z" fill="url(#paint3_radial_649_2219)"/>
<path d="M40.0163 57.3359V52.1734L24.3921 50.9375L22.9702 52.6875C22.9702 52.6875 26.3335 57.3414 35.1272 57.3414L40.0163 57.3359Z" fill="url(#paint4_radial_649_2219)"/>
<path d="M23.0032 50.4285C25.3438 46.8738 20.154 45.5449 20.154 45.5449L20.1485 45.5504C21.0508 46.6715 21.461 47.6504 20.9305 48.6184C20.2688 49.827 18.3 50.002 18.3 50.002C18.3 50.002 20.9852 52.3863 23.0032 50.4285Z" fill="url(#paint5_radial_649_2219)"/>
<path d="M45.3483 66.2715V53.8082H34.646V66.2715H45.3483ZM54.946 32.5293H25.0538C21.8327 32.5293 19.1968 35.3348 19.1968 38.7691C19.1968 42.2035 21.8327 45.009 25.0538 45.009H54.9405C58.1616 45.009 60.7976 42.198 60.7976 38.7691C60.803 35.3402 58.1671 32.5293 54.946 32.5293Z" fill="#E59600"/>
<path d="M40 11.0039C30.4843 11.0039 21.6687 21.1813 21.6687 35.832C21.6687 50.4008 30.7523 57.6031 40 57.6031C49.2476 57.6031 58.3312 50.4008 58.3312 35.832C58.3312 21.1813 49.5156 11.0039 40 11.0039Z" fill="#FFCA28"/>
<path d="M34.9687 32.191C34.4601 31.5184 33.2898 30.5449 31.0148 30.5449C28.7398 30.5449 27.564 31.5238 27.0609 32.191C26.8366 32.4863 26.8913 32.8309 27.0499 33.0387C27.1921 33.2301 27.6187 33.4105 28.089 33.252C28.5593 33.0934 29.4781 32.6176 31.0148 32.6066C32.5515 32.6176 33.4702 33.0934 33.9406 33.252C34.4109 33.4105 34.8374 33.2355 34.9796 33.0387C35.1327 32.8363 35.1929 32.4918 34.9687 32.191ZM52.9445 32.191C52.4359 31.5184 51.2656 30.5449 48.9906 30.5449C46.7156 30.5449 45.5398 31.5238 45.0366 32.191C44.8124 32.4863 44.8671 32.8309 45.0257 33.0387C45.1679 33.2301 45.5945 33.4105 46.0648 33.252C46.5351 33.0934 47.4538 32.6176 48.9906 32.6066C50.5273 32.6176 51.446 33.0934 51.9163 33.252C52.3866 33.4105 52.8132 33.2355 52.9554 33.0387C53.1085 32.8363 53.1687 32.4918 52.9445 32.191Z" fill="#6D4C41"/>
<path d="M31.0093 39.9023C32.4983 39.9023 33.7054 38.6536 33.7054 37.1133C33.7054 35.5729 32.4983 34.3242 31.0093 34.3242C29.5203 34.3242 28.3132 35.5729 28.3132 37.1133C28.3132 38.6536 29.5203 39.9023 31.0093 39.9023Z" fill="#404040"/>
<path d="M48.9905 39.9023C50.4795 39.9023 51.6866 38.6536 51.6866 37.1133C51.6866 35.5729 50.4795 34.3242 48.9905 34.3242C47.5015 34.3242 46.2944 35.5729 46.2944 37.1133C46.2944 38.6536 47.5015 39.9023 48.9905 39.9023Z" fill="#404040"/>
<path d="M44.6046 46.5908C42.8655 47.6244 37.1507 47.6244 35.4116 46.5908C34.4108 45.9947 33.3882 46.908 33.8038 47.8158C34.2139 48.7072 37.3257 50.7799 40.0218 50.7799C42.7179 50.7799 45.7913 48.7072 46.2014 47.8158C46.6116 46.908 45.6054 45.9947 44.6046 46.5908Z" fill="#795548"/>
<path d="M42.1108 42.1648C42.0507 42.143 41.996 42.1266 41.9358 42.1211H38.064C38.0038 42.1266 37.9437 42.143 37.889 42.1648C37.539 42.307 37.3476 42.668 37.5116 43.0562C37.6757 43.4445 38.4468 44.5273 39.9999 44.5273C41.553 44.5273 42.3241 43.4391 42.4882 43.0562C42.6523 42.6734 42.4608 42.307 42.1108 42.1648Z" fill="#E59600"/>
<path d="M59.2883 17.8248C58.8563 15.2436 51.7141 10.6498 49.0399 9.80216C41.7992 7.51075 37.0906 8.44044 34.5641 9.81856C34.0391 10.1029 30.643 11.9897 28.2696 10.6389C26.7821 9.79122 22.511 16.567 20.3617 17.8631C17.8516 19.3779 18.0703 22.1342 18.4531 23.2061C17.075 24.3764 15.3414 26.8647 16.5281 30.0967C17.425 32.5303 20.9961 33.6514 20.9961 33.6514C20.6571 39.5248 22.243 42.374 22.243 42.374C22.243 42.374 24.8078 32.2842 24.5946 30.742C24.5946 30.742 28.8383 29.8998 33.6563 27.1436C36.9102 25.2787 39.136 23.0967 42.7946 22.2709C48.3617 21.0186 49.6031 25.049 49.6031 25.049C49.6031 25.049 54.7547 24.0592 56.3078 31.2123C56.9477 34.1545 57.3633 39.0326 57.7133 42.024C57.6805 41.7615 59.4852 38.5623 59.8242 35.2811C59.9117 34.4334 62.1977 33.3123 63.1821 29.6701C64.4946 24.8139 63.0508 19.5529 59.2883 17.8248Z" fill="#543930"/>
<path d="M63.1876 29.6641C62.3673 32.6883 60.6556 33.9734 60.0431 34.8102C59.2009 29.6859 59.3321 24.8188 53.0923 19.0547C53.0923 19.0547 54.3446 18.7867 54.9571 17.6711C55.4329 16.8016 55.2524 15.7188 55.2524 15.7188C55.4603 15.7297 55.6735 15.7516 55.8923 15.7789C56.9642 15.9758 58.0579 16.5008 59.0587 17.1734C59.179 17.4031 59.2556 17.6219 59.2884 17.8242C63.0509 19.5469 64.5001 24.8078 63.1876 29.6641Z" fill="url(#paint6_radial_649_2219)"/>
<path d="M18.3273 23.3145C17.0312 24.4629 15.2866 27.0277 16.5718 30.2105C17.5397 32.6113 20.996 33.6504 20.996 33.6504C20.996 33.6613 21.6851 33.8691 22.0405 33.8691L22.8499 21.8926C21.1929 21.8926 19.6015 22.3902 18.5733 23.1066C18.5897 23.123 18.3218 23.298 18.3273 23.3145Z" fill="url(#paint7_radial_649_2219)"/>
<path d="M22.8772 21.898V21.8707C21.2202 21.8707 19.6343 22.3684 18.6007 23.0793C18.6007 23.0957 18.5186 23.1559 18.453 23.2051V23.1996C18.4585 23.1941 18.4694 23.1887 18.4749 23.1832C18.0921 22.1113 17.8679 19.3551 20.3835 17.8402C20.6241 17.6926 20.8921 17.4793 21.1819 17.2113C21.8491 16.9379 22.5601 16.7793 23.2163 16.7137C23.4077 16.6973 23.7577 16.6699 23.8616 16.6699L26.4921 16.9926L22.8772 21.898Z" fill="url(#paint8_radial_649_2219)"/>
<path d="M68.804 34.1484C68.1258 34.1484 67.5735 34.6734 67.5735 35.3187V40.35C67.5735 40.9953 68.1258 41.5203 68.804 41.5203C69.4821 41.5203 70.0344 40.9953 70.0344 40.35V35.3187C70.0344 34.6734 69.4821 34.1484 68.804 34.1484ZM66.343 34.1484C65.6649 34.1484 65.1125 34.6734 65.1125 35.3187V40.35C65.1125 40.9953 65.6649 41.5203 66.343 41.5203C67.0211 41.5203 67.5735 40.9953 67.5735 40.35V35.3187C67.5735 34.6734 67.0211 34.1484 66.343 34.1484Z" fill="#E8AD00"/>
<path d="M67.5735 34.1484C66.8954 34.1484 66.343 34.6734 66.343 35.3187V41.4383C66.343 42.0836 66.8954 42.6086 67.5735 42.6086C68.2516 42.6086 68.804 42.0836 68.804 41.4383V35.3187C68.804 34.6734 68.2516 34.1484 67.5735 34.1484Z" fill="#FFCA28"/>
<path d="M67.5733 34.9137C68.4069 34.9137 69.0827 34.2697 69.0827 33.4754C69.0827 32.6811 68.4069 32.0371 67.5733 32.0371C66.7397 32.0371 66.064 32.6811 66.064 33.4754C66.064 34.2697 66.7397 34.9137 67.5733 34.9137Z" fill="#FFCA28"/>
<path d="M67.5735 33.459C67.2727 33.459 67.0266 33.2129 67.0266 32.9121V12.1309C67.0266 11.8301 67.2727 11.584 67.5735 11.584C67.8743 11.584 68.1204 11.8301 68.1204 12.1309V32.9121C68.1204 33.2129 67.8743 33.459 67.5735 33.459Z" fill="#504F4F"/>
<path d="M68.1204 11.5625C51.2602 7.32422 39.6829 7.1875 39.6829 7.1875C39.6829 7.1875 28.1055 7.32422 11.2454 11.5625V11.9836C11.2454 12.7109 11.7211 13.3508 12.4157 13.5531C14.45 14.1547 18.6883 15.3797 21.4555 15.9375C21.4555 15.9375 20.8485 16.8727 20.3618 17.8625C20.3618 17.8625 25.8032 21.1 39.6829 22.5C53.5625 21.1 59.2883 17.8242 59.2883 17.8242C58.8071 16.8344 58.2055 15.9375 58.2055 15.9375C60.6665 15.5328 64.943 14.2203 66.9774 13.575C67.661 13.3563 68.1204 12.7273 68.1204 12.0109V11.5625Z" fill="url(#paint9_linear_649_2219)"/>
<path d="M39.6829 7.1875C39.6829 7.1875 28.1055 7.32422 11.2454 11.5625C11.2454 11.5625 30.6102 16.8508 39.6829 16.6922C48.7555 16.8508 68.1204 11.5625 68.1204 11.5625C51.2547 7.32422 39.6829 7.1875 39.6829 7.1875Z" fill="url(#paint10_linear_649_2219)"/>
<path opacity="0.4" d="M68.1204 11.5625C51.2602 7.32422 39.6829 7.1875 39.6829 7.1875C39.6829 7.1875 28.1055 7.32422 11.2454 11.5625V11.9836C11.2454 12.7109 11.7211 13.3508 12.4157 13.5531C14.45 14.1547 18.6883 15.3797 21.4555 15.9375C21.4555 15.9375 20.8485 16.8727 20.3618 17.8625C20.3618 17.8625 25.8032 21.1 39.6829 22.5C53.5625 21.1 59.2883 17.8242 59.2883 17.8242C58.8071 16.8344 58.2055 15.9375 58.2055 15.9375C60.6665 15.5328 64.943 14.2203 66.9774 13.575C67.661 13.3563 68.1204 12.7273 68.1204 12.0109V11.5625Z" fill="url(#paint11_linear_649_2219)"/>
<path d="M67.6173 71.1672C67.6173 63.1773 55.7228 59.3875 45.3485 58.5344L40.6454 64.5664C40.4923 64.7633 40.2517 64.8836 40.0001 64.8836C39.7485 64.8836 39.5079 64.7687 39.3548 64.5664L34.6407 58.5234C28.8712 58.9664 12.3774 61.1211 12.3774 71.1672V72.8133H67.6118L67.6173 71.1672Z" fill="#212121"/>
<path d="M67.6173 71.1672C67.6173 63.1773 55.7228 59.3875 45.3485 58.5344L40.6454 64.5664C40.4923 64.7633 40.2517 64.8836 40.0001 64.8836C39.7485 64.8836 39.5079 64.7687 39.3548 64.5664L34.6407 58.5234C28.8712 58.9664 12.3774 61.1211 12.3774 71.1672V72.8133H67.6118L67.6173 71.1672Z" fill="url(#paint12_radial_649_2219)"/>
<defs>
<radialGradient id="paint0_radial_649_2219" cx="0" cy="0" r="1" gradientUnits="userSpaceOnUse" gradientTransform="translate(47.9752 49.8756) scale(12.8073 6.29093)">
<stop offset="0.728" stop-color="#6D4C41" stop-opacity="0"/>
<stop offset="1" stop-color="#6D4C41"/>
</radialGradient>
<radialGradient id="paint1_radial_649_2219" cx="0" cy="0" r="1" gradientUnits="userSpaceOnUse" gradientTransform="translate(60.5905 47.9699) rotate(154.924) scale(3.78473 2.80773)">
<stop offset="0.663" stop-color="#6D4C41"/>
<stop offset="1" stop-color="#6D4C41" stop-opacity="0"/>
</radialGradient>
<radialGradient id="paint2_radial_649_2219" cx="0" cy="0" r="1" gradientUnits="userSpaceOnUse" gradientTransform="translate(50.7816 37.2655) rotate(-94.2783) scale(16.6242 13.8552)">
<stop offset="0.725" stop-color="#6D4C41" stop-opacity="0"/>
<stop offset="1" stop-color="#6D4C41"/>
</radialGradient>
<radialGradient id="paint3_radial_649_2219" cx="0" cy="0" r="1" gradientUnits="userSpaceOnUse" gradientTransform="translate(29.2308 37.2652) rotate(-85.7217) scale(16.6242 13.8552)">
<stop offset="0.725" stop-color="#6D4C41" stop-opacity="0"/>
<stop offset="1" stop-color="#6D4C41"/>
</radialGradient>
<radialGradient id="paint4_radial_649_2219" cx="0" cy="0" r="1" gradientUnits="userSpaceOnUse" gradientTransform="translate(32.0369 49.8756) rotate(180) scale(12.8073 6.29093)">
<stop offset="0.728" stop-color="#6D4C41" stop-opacity="0"/>
<stop offset="1" stop-color="#6D4C41"/>
</radialGradient>
<radialGradient id="paint5_radial_649_2219" cx="0" cy="0" r="1" gradientUnits="userSpaceOnUse" gradientTransform="translate(19.4231 47.9703) rotate(25.0761) scale(3.78473 2.80773)">
<stop offset="0.663" stop-color="#6D4C41"/>
<stop offset="1" stop-color="#6D4C41" stop-opacity="0"/>
</radialGradient>
<radialGradient id="paint6_radial_649_2219" cx="0" cy="0" r="1" gradientUnits="userSpaceOnUse" gradientTransform="translate(50.3201 28.7681) rotate(72.0851) scale(18.5257 13.7456)">
<stop offset="0.699" stop-color="#6D4C41" stop-opacity="0"/>
<stop offset="1" stop-color="#6D4C41"/>
</radialGradient>
<radialGradient id="paint7_radial_649_2219" cx="0" cy="0" r="1" gradientUnits="userSpaceOnUse" gradientTransform="translate(26.0741 28.6788) rotate(7.83355) scale(9.23483 12.9765)">
<stop offset="0.598" stop-color="#6D4C41" stop-opacity="0"/>
<stop offset="1" stop-color="#6D4C41"/>
</radialGradient>
<radialGradient id="paint8_radial_649_2219" cx="0" cy="0" r="1" gradientUnits="userSpaceOnUse" gradientTransform="translate(25.2807 22.6219) rotate(-164.942) scale(7.07737 6.62313)">
<stop offset="0.66" stop-color="#6D4C41" stop-opacity="0"/>
<stop offset="1" stop-color="#6D4C41"/>
</radialGradient>
<linearGradient id="paint9_linear_649_2219" x1="39.6812" y1="4.81789" x2="39.6812" y2="20.4804" gradientUnits="userSpaceOnUse">
<stop offset="0.003" stop-color="#424242"/>
<stop offset="0.472" stop-color="#353535"/>
<stop offset="1" stop-color="#212121"/>
</linearGradient>
<linearGradient id="paint10_linear_649_2219" x1="39.6812" y1="4.90867" x2="39.6812" y2="21.8618" gradientUnits="userSpaceOnUse">
<stop offset="0.003" stop-color="#616161"/>
<stop offset="0.324" stop-color="#505050"/>
<stop offset="0.955" stop-color="#242424"/>
<stop offset="1" stop-color="#212121"/>
</linearGradient>
<linearGradient id="paint11_linear_649_2219" x1="12.2784" y1="14.8432" x2="67.4187" y2="14.8432" gradientUnits="userSpaceOnUse">
<stop offset="0.001" stop-color="#BFBEBE"/>
<stop offset="0.3" stop-color="#212121" stop-opacity="0"/>
<stop offset="0.7" stop-color="#212121" stop-opacity="0"/>
<stop offset="1" stop-color="#BFBEBE"/>
</linearGradient>
<radialGradient id="paint12_radial_649_2219" cx="0" cy="0" r="1" gradientUnits="userSpaceOnUse" gradientTransform="translate(40.0001 72.0494) scale(29.6226 15.543)">
<stop offset="0.598" stop-color="#212121"/>
<stop offset="1" stop-color="#616161"/>
</radialGradient>
</defs>
</svg>
