<svg width="24" height="24" viewBox="0 0 24 24" fill="none" xmlns="http://www.w3.org/2000/svg">
<path d="M22.4213 4.40147L12.2675 1.04309C12.0938 0.985636 11.906 0.985636 11.7323 1.04309L1.57855 4.40147C1.41007 4.4572 1.26353 4.56412 1.15969 4.70709C1.05586 4.85005 0.999987 5.02181 1 5.19804V13.594C1 13.8167 1.08915 14.0302 1.24783 14.1877C1.40651 14.3451 1.62173 14.4336 1.84615 14.4336C2.07056 14.4336 2.28578 14.3451 2.44446 14.1877C2.60315 14.0302 2.69229 13.8167 2.69229 13.594V6.36298L6.24505 7.53736C5.30113 9.05052 5.00097 10.8735 5.41047 12.6061C5.81997 14.3387 6.90567 15.8392 8.42917 16.7782C6.52534 17.5191 4.87958 18.8593 3.67594 20.6917C3.61334 20.784 3.56986 20.8878 3.54802 20.9969C3.52619 21.1061 3.52643 21.2184 3.54874 21.3274C3.57105 21.4365 3.61499 21.54 3.67798 21.6321C3.74098 21.7241 3.82179 21.8029 3.91572 21.8636C4.00964 21.9244 4.11481 21.9661 4.2251 21.9862C4.33539 22.0063 4.44861 22.0044 4.55817 21.9807C4.66773 21.957 4.77146 21.912 4.86331 21.8482C4.95517 21.7843 5.03332 21.703 5.09323 21.609C6.68716 19.1825 9.20445 17.792 11.9999 17.792C14.7954 17.792 17.3126 19.1825 18.9066 21.609C19.0307 21.792 19.2224 21.9192 19.4403 21.9631C19.6581 22.007 19.8847 21.964 20.0709 21.8435C20.2571 21.723 20.388 21.5346 20.4353 21.3191C20.4827 21.1035 20.4426 20.8782 20.3239 20.6917C19.1202 18.8593 17.4681 17.5191 15.5706 16.7782C17.0927 15.8392 18.1773 14.3397 18.5868 12.6084C18.9962 10.8771 18.697 9.05533 17.7548 7.54261L22.4213 5.99985C22.5898 5.94415 22.7364 5.83724 22.8402 5.69428C22.9441 5.55131 23 5.37953 23 5.20328C23 5.02704 22.9441 4.85526 22.8402 4.71229C22.7364 4.56932 22.5898 4.46242 22.4213 4.40672V4.40147ZM17.0768 11.0752C17.077 11.8716 16.8869 12.6567 16.5222 13.3661C16.1574 14.0756 15.6283 14.689 14.9783 15.1563C14.3283 15.6235 13.5759 15.9311 12.7829 16.0539C11.9898 16.1768 11.1788 16.1113 10.4162 15.8628C9.6536 15.6144 8.96126 15.1901 8.39595 14.6247C7.83063 14.0594 7.40847 13.3691 7.16408 12.6105C6.9197 11.8519 6.86006 11.0466 6.99007 10.2607C7.12007 9.47479 7.43601 8.73067 7.91196 8.08939L11.7323 9.34879C11.906 9.40624 12.0938 9.40624 12.2675 9.34879L16.0879 8.08939C16.7307 8.95417 17.0773 10.0006 17.0768 11.0752Z" fill="#6A37F8"/>
</svg>
