<svg width="24" height="24" viewBox="0 0 24 24" fill="none" xmlns="http://www.w3.org/2000/svg">
<path d="M22.7906 1.90309C22.6219 1.77184 22.3969 1.72497 22.1906 1.78122L12 4.48122L1.80937 1.78122C1.60312 1.72497 1.37812 1.77184 1.20937 1.90309C1.04062 2.02497 0.9375 2.23122 0.9375 2.43747V18.8156C0.9375 19.125 1.14375 19.3968 1.45312 19.4718L11.8219 22.2187C11.8781 22.2375 11.9438 22.2375 12 22.2375C12.0656 22.2375 12.1219 22.2281 12.1781 22.2187L22.5469 19.4718C22.8469 19.3968 23.0625 19.125 23.0625 18.8156V2.43747C23.0625 2.23122 22.9594 2.02497 22.7906 1.90309ZM9.4125 8.56872L4.575 7.29372C4.20937 7.19059 3.825 7.41559 3.73125 7.78122C3.6375 8.14684 3.85313 8.52184 4.21875 8.61559L9.05625 9.89997C9.1125 9.91872 9.17813 9.91872 9.23438 9.91872C9.54375 9.91872 9.81563 9.72184 9.9 9.41247C10.0031 9.04684 9.7875 8.67184 9.4125 8.56872ZM9.4125 11.9812L4.575 10.6968C4.20937 10.6031 3.825 10.8187 3.73125 11.1843C3.6375 11.55 3.85313 11.925 4.21875 12.0187L9.05625 13.3031C9.1125 13.3218 9.17813 13.3218 9.23438 13.3218C9.54375 13.3218 9.81563 13.125 9.9 12.8156C10.0031 12.45 9.7875 12.075 9.4125 11.9812ZM9.4125 15.3937L4.575 14.1093C4.20937 14.0156 3.825 14.2312 3.73125 14.5968C3.6375 14.9625 3.85313 15.3375 4.21875 15.4312L9.05625 16.7156C9.1125 16.7343 9.17813 16.7343 9.23438 16.7343C9.54375 16.7343 9.81563 16.5375 9.9 16.2281C10.0031 15.8625 9.7875 15.4875 9.4125 15.3937ZM2.325 3.32809L11.3156 5.70934V20.6718L2.325 18.3V3.32809ZM21.6844 18.2906L12.6937 20.6718V5.70934L21.6844 3.32809V18.2906ZM14.7656 9.90934C14.8219 9.90934 14.8875 9.89997 14.9437 9.89059L19.7812 8.60622C20.1469 8.51247 20.3719 8.13747 20.2687 7.77184C20.1656 7.40622 19.7906 7.19059 19.425 7.28434L14.5875 8.56872C14.2219 8.66247 13.9969 9.03747 14.1 9.40309C14.1844 9.71247 14.4563 9.90934 14.7656 9.90934ZM14.7656 13.3218C14.8219 13.3218 14.8875 13.3125 14.9437 13.3031L19.7812 12.0187C20.1469 11.925 20.3719 11.55 20.2687 11.1843C20.1656 10.8187 19.7906 10.6031 19.425 10.6968L14.5875 11.9812C14.2219 12.075 13.9969 12.45 14.1 12.8156C14.1844 13.125 14.4563 13.3218 14.7656 13.3218ZM14.7656 16.7343C14.8219 16.7343 14.8875 16.725 14.9437 16.7156L19.7812 15.4312C20.1469 15.3375 20.3719 14.9625 20.2687 14.5968C20.1656 14.2312 19.7906 14.0156 19.425 14.1093L14.5875 15.3937C14.2219 15.4875 13.9969 15.8625 14.1 16.2281C14.1844 16.5375 14.4563 16.7343 14.7656 16.7343Z" fill="#444444"/>
</svg>
