<svg width="24" height="24" viewBox="0 0 24 24" fill="none" xmlns="http://www.w3.org/2000/svg">
<path d="M21.3077 3H2.69231C2.24348 3 1.81303 3.1724 1.49567 3.47928C1.1783 3.78616 1 4.20237 1 4.63636V19.3636C1 19.7976 1.1783 20.2138 1.49567 20.5207C1.81303 20.8276 2.24348 21 2.69231 21H4.10856C4.2687 21 4.42557 20.9562 4.56094 20.8734C4.6963 20.7907 4.80461 20.6725 4.87327 20.5326C5.28473 19.6926 5.93436 18.9828 6.7466 18.4858C7.55884 17.9888 8.50031 17.7249 9.46154 17.7249C10.4228 17.7249 11.3642 17.9888 12.1765 18.4858C12.9887 18.9828 13.6383 19.6926 14.0498 20.5326C14.1185 20.6725 14.2268 20.7907 14.3621 20.8734C14.4975 20.9562 14.6544 21 14.8145 21H21.3077C21.7565 21 22.187 20.8276 22.5043 20.5207C22.8217 20.2138 23 19.7976 23 19.3636V4.63636C23 4.20237 22.8217 3.78616 22.5043 3.47928C22.187 3.1724 21.7565 3 21.3077 3ZM6.92308 13.6364C6.92308 13.1509 7.07196 12.6763 7.35088 12.2727C7.62981 11.869 8.02627 11.5544 8.49011 11.3687C8.95395 11.1829 9.46435 11.1343 9.95677 11.229C10.4492 11.3237 10.9015 11.5575 11.2565 11.9007C11.6115 12.244 11.8533 12.6814 11.9512 13.1575C12.0492 13.6336 11.9989 14.1272 11.8068 14.5757C11.6146 15.0242 11.2893 15.4075 10.8718 15.6772C10.4544 15.947 9.9636 16.0909 9.46154 16.0909C8.7883 16.0909 8.14263 15.8323 7.66657 15.372C7.19052 14.9117 6.92308 14.2873 6.92308 13.6364ZM21.3077 19.3636H15.3243C14.6177 18.189 13.5526 17.2544 12.275 16.6882C12.9155 16.1367 13.3676 15.41 13.5713 14.6045C13.7749 13.7989 13.7206 12.9525 13.4155 12.1775C13.1104 11.4024 12.5688 10.7354 11.8627 10.2647C11.1566 9.79404 10.3192 9.542 9.46154 9.542C8.6039 9.542 7.76651 9.79404 7.06037 10.2647C6.35424 10.7354 5.81272 11.4024 5.50759 12.1775C5.20246 12.9525 5.14813 13.7989 5.35181 14.6045C5.55549 15.41 6.00755 16.1367 6.64808 16.6882C5.37049 17.2544 4.30536 18.189 3.59875 19.3636H2.69231V4.63636H21.3077V19.3636ZM4.38462 8.72727V7.09091C4.38462 6.87391 4.47376 6.66581 4.63245 6.51237C4.79113 6.35893 5.00636 6.27273 5.23077 6.27273H18.7692C18.9936 6.27273 19.2089 6.35893 19.3676 6.51237C19.5262 6.66581 19.6154 6.87391 19.6154 7.09091V16.9091C19.6154 17.1261 19.5262 17.3342 19.3676 17.4876C19.2089 17.6411 18.9936 17.7273 18.7692 17.7273H17.0769C16.8525 17.7273 16.6373 17.6411 16.4786 17.4876C16.3199 17.3342 16.2308 17.1261 16.2308 16.9091C16.2308 16.6921 16.3199 16.484 16.4786 16.3305C16.6373 16.1771 16.8525 16.0909 17.0769 16.0909H17.9231V7.90909H6.07692V8.72727C6.07692 8.94427 5.98777 9.15238 5.82909 9.30581C5.67041 9.45925 5.45518 9.54545 5.23077 9.54545C5.00636 9.54545 4.79113 9.45925 4.63245 9.30581C4.47376 9.15238 4.38462 8.94427 4.38462 8.72727Z" fill="#444444"/>
</svg>
